<svg xmlns="http://www.w3.org/2000/svg" width="335.399" height="245.873" id="svg2" version="1.1"><g id="layer1" transform="translate(0 -806.489)"><g id="g4140" transform="translate(0 3.161)"><path style="color:#000;font-variant:normal;text-indent:0;text-align:start;letter-spacing:normal;word-spacing:normal;text-transform:none;direction:ltr;block-progression:tb;writing-mode:lr-tb;baseline-shift:baseline;text-anchor:start;white-space:normal;clip-rule:nonzero;visibility:visible;opacity:1;isolation:auto;mix-blend-mode:normal;color-interpolation:srgb;color-interpolation-filters:linearrgb;solid-color:#000;solid-opacity:1;fill:#000;fill-opacity:1;fill-rule:evenodd;stroke:none;stroke-width:4px;stroke-linecap:butt;stroke-linejoin:miter;stroke-miterlimit:4;stroke-dasharray:none;stroke-dashoffset:0;stroke-opacity:1;color-rendering:auto;image-rendering:auto;shape-rendering:auto;text-rendering:auto;enable-background:accumulate;font-family:sans-serif;font-size:medium;font-style:normal;font-weight:400;font-stretch:100%;line-height:normal;-webkit-text-decoration:none;text-decoration:none;display:inline;overflow:visible" d="M9.17 803.328v245.873h137.658v-46.48l20.652 46.398 20.653-46.402v46.484H325.79V872.46h-18.432v-69.13h-24.47v90.41h-3.78v-21.28H258.25v-13.625h20.86v-21.197h-20.86v-13.625h20.86v-20.684h-62.108l-6.063 46.348-4.095-46.348h-21.98l12.359 90.41h-7.139c-.073-.006-.981-.097-2.186-1.404-1.253-1.36-2.695-4.105-2.32-10.06l.004-.063v-15.854c0-2.48-.128-5.937-1.601-9.378-1.133-2.644-3.146-5.23-6.297-7.217 2.77-2.274 4.618-5.169 5.746-8.262 1.49-4.086 1.828-8.513 1.783-12.67-.077-7.215-1.063-13.542-4.625-18.228-3.562-4.687-9.61-7.274-18.541-7.274h-25.828V886.7l-16.38-83.37H95.472L78.445 889.99v-86.662H53.477l-9.041 36.639-7.979-36.639H9.17zm4 4h20.064l9.125 41.906 3.897.053 10.353-41.959h17.836v90.41H81l17.762-90.41h17.787l17.762 90.41h5.908v-90.41h21.828c8.194 0 12.652 2.138 15.355 5.695 2.704 3.558 3.74 8.994 3.813 15.85.042 3.9-.31 7.872-1.543 11.256-1.234 3.383-3.26 6.17-6.838 8.098l-3.754 2.021 3.955 1.594c4.175 1.683 6.151 4.1 7.27 6.713 1.118 2.612 1.277 5.48 1.277 7.802v15.791l.004-.127c-.423 6.704 1.279 10.754 3.371 13.024 2.093 2.27 4.656 2.676 4.656 2.676l.131.017h12.063l-12.36-90.41h13.735l5.38 60.893 3.975.084 7.975-60.977h13.031l-14.855 90.41h22.591v-90.41h33.83v12.684H254.25v21.625h20.86v13.197h-20.86v21.625h20.86v21.28h11.779v-90.41h16.47v69.13h18.432v168.742H192.133V993.31l-3.828-.815-20.824 46.79-20.827-46.79-3.826.815v51.892H13.17V807.328zm224.11 1.942v84.468h-13.882l13.881-84.468zm-77.737 11.119a7.65 7.65 0 0 0-2.768.025l-1.629.307v22.888l1.483.397c2.935.786 5.915-.474 7.975-2.701 2.06-2.228 3.375-5.474 3.375-9.194 0-2.131-.77-4.957-2.479-7.54-1.281-1.938-3.355-3.722-5.957-4.182zm-53.871 1.728-5.873 44.584h15.713l-5.873-44.584h-3.967zm53.474 2.24c1.239.256 2.163 1.127 3.018 2.42 1.194 1.806 1.815 4.418 1.815 5.334 0 2.767-1.006 5.063-2.313 6.477-.819.885-1.674 1.284-2.52 1.465v-15.696zm-51.49 13.336 3.293 25.008h-6.588l3.295-25.008zm-78.449 5.078-3.936.499v54.468h18.06l-14.124-54.967zm29.2 0-14.124 54.967h18.06V843.27l-3.937-.499zm100.003 11.975a11.63 11.63 0 0 0-1.437.035l-1.827.158v42.8h16.805v-4c-.413 0-.506-.048-.851-.514-.346-.466-.732-1.392-.995-2.578-.524-2.373-.617-5.686-.617-8.499v-15.834c0-2.477-1.01-5.14-2.865-7.386-1.855-2.246-4.692-4.049-8.213-4.182zm.736 4.236c1.8.318 3.306 1.176 4.393 2.493 1.275 1.544 1.95 3.556 1.95 4.84v15.833c0 2.88.049 6.362.712 9.362.172.775.387 1.52.67 2.228h-7.725v-34.756zm-100.802.104v34.652H49.44l8.903-34.652zm-29.073.008 8.9 34.644h-8.9v-34.644zm69.274 17.18-.229 1.74-2.584 19.724h23.848l-2.814-21.464H98.545zm3.51 4h11.2l1.765 13.464H100.29l1.764-13.464z" id="path4136"/><path style="fill:red;fill-opacity:1;fill-rule:evenodd;stroke:none;stroke-width:1px;stroke-linecap:butt;stroke-linejoin:miter;stroke-opacity:1" d="M11.17 805.328V1047.2h133.657v-53.893l22.653 50.893 22.652-50.893v53.893H323.79V874.458h-18.432v-69.13h-20.47v90.41h-7.78v-21.28H256.25v-17.624h20.86v-17.198h-20.86v-17.625h20.86v-16.683h-37.83v90.41h-18.237l14.858-90.41h-17.143l-8.203 62.716-5.541-62.716h-17.858l12.36 90.41h-9.64s-7.092-.931-6.294-13.59v-15.791c0-4.803-.57-12.648-9.799-16.37 8.055-4.337 9.518-13.08 9.432-21.136-.15-14.071-4.043-23.523-21.168-23.523h-23.828v90.41h-2.262l-17.762-90.41H97.116l-17.761 90.41h-2.91v-90.41H55.041l-10.728 43.48-9.47-43.48zm154.808 26.783c0 6.485-4.636 11.087-8.832 9.963v-19.696c6.053-1.141 8.832 6.685 8.832 9.733zm-58.323-9.733 5.577 42.323h-11.153zM27.271 843.27l13.48 52.469h-13.48zm33.072 0v52.469h-13.48zm97.992 13.475c5.784.218 9.152 5.809 9.152 9.57v15.834c0 5.692.288 13.59 4.463 13.59H157.146v-38.965a9.567 9.567 0 0 1 1.19-.03zM100.3 878.273h14.71l2.29 17.465H98.01z" id="path4202"/><path style="color:#000;font-variant:normal;text-indent:0;text-align:start;letter-spacing:normal;word-spacing:normal;text-transform:none;direction:ltr;block-progression:tb;writing-mode:lr-tb;baseline-shift:baseline;text-anchor:start;white-space:normal;clip-rule:nonzero;visibility:visible;opacity:1;isolation:auto;mix-blend-mode:normal;color-interpolation:srgb;color-interpolation-filters:linearrgb;solid-color:#000;solid-opacity:1;fill:#000;fill-opacity:1;fill-rule:evenodd;stroke:none;stroke-width:4px;stroke-linecap:butt;stroke-linejoin:miter;stroke-miterlimit:4;stroke-dasharray:none;stroke-dashoffset:0;stroke-opacity:1;color-rendering:auto;image-rendering:auto;shape-rendering:auto;text-rendering:auto;enable-background:accumulate;font-family:sans-serif;font-size:medium;font-style:normal;font-weight:400;font-stretch:100%;line-height:normal;-webkit-text-decoration:none;text-decoration:none;display:inline;overflow:visible" d="M314.697 895.52c-1.999-.01-4.115.414-6.26 1.353-7.248 3.174-17.465 10.344-25.84 19.229-1.201-5.577-3.134-9.777-5.822-12.557-3.291-3.404-7.728-4.54-12.101-3.615-7.874 1.663-13.173 4.269-25.133 14.662-6.702 5.824-12.687 14.008-17.789 22.648.701-6.963 1.386-13.478 2.545-25.08.413-4.134.375-7.122-.147-9.43-.52-2.307-1.718-4.088-3.427-4.89-1.71-.803-3.488-.635-5.178-.299s-3.39.895-5.076 1.354c-2.713.738-5.838 2.204-8.457 4.455-2.62 2.25-4.77 5.406-4.918 9.3-.01.255-.11.483-.139.725-.519-.969-1.1-1.882-1.853-2.646-3.057-3.104-7.554-3.385-12.762-2.88-4.798.467-8.045 2.285-10.158 4.737-2.114 2.452-3.148 5.318-4.303 7.94-1.385 2.982-3.74 8.182-6.438 13.242-1.336-6.37-2.005-13.455-2.933-18.131l-.024-.12-.039-.117c-.466-1.414-.922-3.416-2.765-4.918-1.844-1.501-4.582-2.156-9.053-2.11-5.3.053-8.702 4.168-10.647 7.806-1.847 3.455-2.569 6.647-2.642 6.978-.043.11-3.669 9.88-6.643 20.069-1.614-3.087-3.418-5.782-5.789-7.657-3.535-2.795-7.966-4.17-13.47-4.666-5.932-.533-12.378 1.74-18.332 5.354-5.955 3.613-11.426 8.615-15.25 13.963-7.574 10.59-9.111 25.738-11.33 34.119-8.267 4.93-17.476 7.134-25.694 7.295-1.73.034-2.97-.49-4.03-1.418-1.058-.929-1.907-2.33-2.445-4.024-1.076-3.387-.796-7.857.71-10.953 1.63-3.351 5.193-8.464 8.958-13.02 3.066-3.707 6.13-6.732 8.438-8.603.935 1.85 2.015 3.937 3.996 5.563a7.485 7.485 0 0 0 5.45 1.66c2.15-.202 4.459-1.202 7.157-3.098 5.795-4.071 6.723-10.83 5.854-17.062-.87-6.232-3.378-12.388-4.756-16.453-.8-2.36-2.002-4.193-3.613-5.399-1.612-1.206-3.565-1.7-5.518-1.66-3.906.082-7.983 2.011-12.19 4.578-8.123 4.957-19.183 11.485-33.109 30.951-6.609 9.24-13.225 23.983-11.435 37.848 1.764 13.667 9.408 20.455 14.984 24.973 6.195 5.019 15.165 6.074 23.596 5.422 8.431-.653 16.343-3.008 20.95-5.797 4.041-2.448 6.491-3.31 8.296-5.346.903-1.018 1.454-2.356 1.64-3.822.028-.217-.03-.556-.013-.782 2.952 2.486 5.555 4.525 8.504 5.69 4.043 1.596 8.732 1.802 16.578 1.185 8.312-.653 15.457-4.742 20.693-9.625 4.7-4.381 7.82-9.276 8.977-13.552.803.23 2.747.822 5.59 1.242 1.272.188 3.17 1.089 5.521.348 1.176-.371 2.284-1.263 3.067-2.52.782-1.257 1.345-2.872 1.795-5.06 1.236-6.019 4.072-16.363 6.748-23.932.032 1.905 0 4.012.002 8.611 0 2.136-.298 5.02 1.396 7.504.847 1.242 2.292 2.21 4.063 2.56 1.77.351 3.856.204 6.492-.43 4.405-1.058 7.41-3.743 9.78-8.167 2.268-3.73 4.048-7.57 5.89-11.293.07 3.458.233 6.87.209 9.166-.021 1.963-.316 3.934.281 5.986.299 1.026.92 2.09 1.904 2.832.985.744 2.221 1.149 3.674 1.32 2.817.334 6.286 0 9.338-1.277 1.526-.638 2.96-1.525 4.064-2.799a7.443 7.443 0 0 0 1.832-4.88c-.003-2.602.495-11.58 1.17-20.123.094-1.182.206-2.107.305-3.26.172 1.726.37 3.287.518 5.03.36 4.228.66 8.396.857 11.75.197 3.352.28 6.013.246 6.743-.095 2.02-.433 5.885.83 9.11.632 1.612 1.93 3.256 3.944 3.71 2.013.455 4.197-.217 6.74-1.792 2.193-1.36 3.417-1.947 4.572-2.627 2.398-1.412 3.63-3.782 4.113-6.309.394-2.06.248-4.22.159-6.244a35.55 35.55 0 0 0 5.302 4.79c4.307 3.17 9.848 5.781 16 5.808 7.618.032 17.867-1.992 24.362-6.461 2.927-2.015 5.848-3.965 8.22-6.184 2.372-2.218 4.272-4.808 4.65-8.01.449-3.79.277-6.534-.538-8.642-.815-2.108-2.544-3.52-4.356-3.858-3.624-.674-6.852 1.51-8.963 3.324-3.677 3.162-6.319 5.662-13.12 6.801-2.817.472-4.442-.666-5.364-2.967-.922-2.3-.768-5.94 1.475-9.822 4.163-7.207 9.95-10.885 14-13.252.539.749 1.082 1.494 1.671 2.266.944 1.233 2.164 2.501 4.02 3.625 2.082 1.26 4.648 1.766 7.174 1.473a10.368 10.368 0 0 0 3.945-1.301c.172.728.328 1.612.58 2.308.597 1.645 1.63 3.194 3.4 4.815 2.529 2.314 6.311 2.467 10.27 2.547 3.959.08 8.126-.243 10.83-.332 2.673-.088 4.44.133 5.233.41.359.125.446.217.466.236.013.526-.14.99-.664 1.629-.533.651-1.449 1.39-2.636 2.117-2.375 1.453-5.779 2.85-9.145 4.28-1.878.796-4.163 1.541-6.07 1.607-2.994.103-6.197.804-8.397 3.271-2.2 2.467-2.962 6.333-1.982 11.694.685 3.747 1.654 6.402 3.142 8.297a7.753 7.753 0 0 0 5.69 2.963c4.154.23 8.272-1.874 12.924-3.14 5.17-1.406 13.693-5.046 20.98-10.589 7.287-5.543 13.5-13.205 12.613-22.498-.827-8.67-3.886-13.13-7.658-14.988-3.771-1.86-7.712-1.166-9.634-1.192a54.949 54.949 0 0 1-4.866-.293c-1.135-.115-2.036-.345-2.525-.62-.49-.277-.661-.438-.803-1.141-.06-.299 0-.638.47-1.27.473-.631 1.337-1.396 2.378-2.105 2.082-1.42 4.82-2.65 6.49-3.352 1.535-.645 3.075-1.026 4.523-1.46 1.449-.436 2.94-.868 4.06-2.247 1.276-1.574 1.483-3.52 1.245-5.102-.237-1.581-.851-2.937-1.387-3.95-2.236-4.237-6.914-8.026-12.91-8.053zm-.017 4c4.283.019 7.777 2.865 9.39 5.921.418.791.839 1.809.969 2.676.13.868.039 1.448-.398 1.987-.112.138-.812.55-2.102.937-1.29.388-3.034.809-4.922 1.602-1.752.736-4.671 2.017-7.193 3.736-1.261.86-2.436 1.821-3.328 3.016-.893 1.194-1.524 2.779-1.188 4.45.345 1.715 1.457 3.104 2.76 3.839 1.303.734 2.703.974 4.084 1.115 1.63.166 3.362.287 5.217.312 2.628.036 5.559-.381 7.918.782 2.359 1.162 4.689 3.857 5.445 11.78.697 7.302-4.305 13.802-11.053 18.934-6.747 5.133-15.079 8.68-19.607 9.913-5.048 1.373-9.254 3.138-11.654 3.005-1.2-.066-1.911-.354-2.764-1.44-.853-1.084-1.733-3.15-2.354-6.546-.857-4.691-.106-7.035 1.032-8.31 1.137-1.276 3.093-1.851 5.55-1.936 2.77-.096 5.407-1.037 7.497-1.924 3.325-1.411 6.839-2.818 9.667-4.549 1.415-.865 2.673-1.81 3.643-2.994.97-1.183 1.64-2.697 1.58-4.34-.03-.838-.358-1.757-.953-2.435-.595-.679-1.366-1.11-2.207-1.403-1.683-.586-3.773-.726-6.68-.63-2.876.094-6.938.404-10.619.33-3.681-.074-6.95-.86-7.648-1.498-1.456-1.333-1.941-2.121-2.342-3.227-.401-1.106-.656-2.676-1.25-5.059l-.772-3.093 2.475-2.903c8.278-9.711 19.959-17.874 27.168-21.03 1.668-.731 3.212-1.025 4.639-1.018zm-95.657 1.94c.447.21.867.566 1.225 2.151.358 1.585.46 4.248.07 8.153-1.604 16.063-2.904 27.21-3.539 34.857l3.772 1.08c5.854-11.366 13.39-22.945 21.613-30.092 11.786-10.241 15.881-12.192 23.336-13.767 3.292-.696 5.98-.019 8.4 2.484s4.497 7.093 5.47 14.215l.439 3.219-2.213 3.135c-.863 1.221-2.276 1.918-3.924 2.109-1.648.191-3.45-.198-4.639-.918-1.415-.857-2.149-1.634-2.914-2.635-.765-1-1.538-2.273-2.785-3.762l-1.08-1.29-1.457.845c-3.85 2.235-11.717 6.492-16.99 15.621-2.738 4.74-3.219 9.585-1.725 13.313 1.494 3.728 5.333 6.16 9.738 5.422 7.64-1.28 11.433-4.587 15.067-7.711 1.545-1.329 4.452-2.644 5.625-2.426.586.109.92.24 1.355 1.367.436 1.127.703 3.31.299 6.73-.224 1.892-1.394 3.672-3.412 5.56-2.018 1.887-4.807 3.78-7.756 5.81-5.26 3.62-15.247 5.784-22.076 5.756-5.016-.022-9.822-2.214-13.647-5.028-3.824-2.814-6.647-6.335-7.554-8.219l-2.24-4.652-1.48 4.95c-.615 2.063-.492 4.248-.401 6.359.09 2.11.171 4.148-.084 5.484-.366 1.913-.837 2.802-2.215 3.613-.937.552-2.331 1.237-4.65 2.674-2.076 1.286-3.284 1.397-3.753 1.291-.469-.106-.745-.364-1.1-1.267-.707-1.807-.656-5.42-.56-7.461.062-1.3-.046-3.772-.246-7.168-.2-3.396-.502-7.593-.865-11.856-.727-8.526-1.591-17.02-2.647-20.676l-1.572-5.447-2.193 5.23c-.347.828-.48 1.645-.678 2.844a93.18 93.18 0 0 0-.592 4.38c-.39 3.391-.775 7.622-1.115 11.925-.68 8.606-1.185 17.362-1.182 20.443.001.944-.284 1.599-.853 2.254-.57.656-1.471 1.265-2.586 1.73-2.23.933-5.264 1.24-7.324.997-.986-.117-1.487-.354-1.735-.541-.247-.187-.353-.342-.474-.758-.243-.832-.147-2.638-.123-4.826.045-4.185.052-12.593-.395-16.897l-.558-5.386-3.077 4.457c-4.083 5.917-6.222 12.498-9.515 17.892l-.031.05-.028.052c-2.086 3.911-3.728 5.359-7.209 6.195-2.288.55-3.848.58-4.779.395-.931-.185-1.242-.464-1.535-.893-.586-.858-.7-3.002-.701-5.25-.002-5.502.106-8.38-.008-10.6-.115-2.218-.53-3.81-1.405-5.972l-1.699-4.195-1.959 4.082c-3.571 7.442-7.877 22.825-9.597 31.2-.392 1.908-.87 3.108-1.272 3.753s-.625.742-.873.82c-.497.157-1.823-.207-3.736-.49-2.994-.443-6.086-1.354-6.086-1.354l-.008-.002-.006-.002s-.458-.162-1.123-.136a2.576 2.576 0 0 0-1.315.376c-.533.321-1.043 1.044-1.152 1.711-.496 3.028-3.469 8.346-8.19 12.748-4.72 4.402-11.096 8-18.279 8.565-7.649.601-11.629.33-14.795-.92-3.166-1.25-5.895-3.677-10.742-7.822l-3.734-3.194.443 4.895c.189 2.083.223 3.518.107 4.428-.116.909-.284 1.241-.668 1.673-.766.865-3.15 2.022-7.375 4.58-3.661 2.218-11.33 4.621-19.185 5.229-7.855.608-15.875-.576-20.77-4.541-5.475-4.436-11.932-9.96-13.535-22.379-1.577-12.22 4.568-26.407 10.72-35.008 13.597-19.005 23.762-24.87 31.942-29.861 3.946-2.408 7.648-3.941 10.19-3.994 1.27-.027 2.21.243 3.037.861.827.619 1.609 1.67 2.223 3.48 1.449 4.277 3.81 10.194 4.582 15.723.77 5.53.108 10.218-4.192 13.239-2.349 1.65-4.078 2.278-5.232 2.386-1.155.109-1.806-.167-2.54-.77-1.467-1.203-2.688-4.121-4.22-6.628l-1.047-1.717-1.71 1.059c-3.185 1.97-7.17 6.147-11.075 10.87-3.905 4.724-7.556 9.88-9.473 13.821-2.041 4.197-2.344 9.446-.926 13.912.71 2.233 1.877 4.292 3.62 5.82 1.743 1.529 4.09 2.46 6.746 2.409 9.097-.178 19.275-2.599 28.412-8.254l.662-.41.21-.748c2.534-9.014 4.117-24.17 10.913-33.674 3.455-4.831 8.597-9.548 14.074-12.871 5.477-3.324 11.28-5.205 15.899-4.79 5.045.454 8.576 1.632 11.347 3.823 2.772 2.191 4.914 5.523 6.803 10.666l2.227 6.057 1.59-6.254c2.941-11.573 8.046-24.641 8.046-24.641l.059-.148.033-.157s.69-3.109 2.326-6.168c1.636-3.059 3.943-5.66 7.159-5.693 4.044-.04 5.758.622 6.486 1.215.702.572.953 1.432 1.445 2.933 1.056 5.382 1.765 15.413 4.238 23.377l1.29 4.153 2.314-3.682c4.135-6.58 7.391-14.554 9.082-18.191l.008-.018.01-.02c1.214-2.754 2.174-5.204 3.67-6.939 1.496-1.735 3.476-2.973 7.516-3.365 4.836-.47 7.791-.058 9.525 1.703 1.232 1.251 2.404 4.427 3.375 8.094l3.928-.36c.262-3.386 1.405-5.011 1.537-8.468.095-2.515 1.469-4.65 3.525-6.416 2.057-1.767 4.76-3.047 6.9-3.63 1.809-.491 3.472-1.026 4.81-1.292 1.337-.266 2.25-.212 2.696-.002zm-115.209 50.595c-3.231.152-6.488 2.177-9.578 4.754-3.09 2.577-5.87 5.758-7.238 8.998l-.025.062-.022.063c-1.429 4.134-2.752 8.604-2.709 12.619.022 2.007.393 3.958 1.473 5.611 1.08 1.653 2.898 2.86 5.154 3.326 4.538.94 8.922-1.17 12.299-4.248 3.377-3.078 5.92-7.198 6.887-11.24l.004-.014.004-.013c.732-3.267 1.102-7.17.77-10.711-.334-3.542-1.264-7.014-4.243-8.631-.884-.48-1.852-.62-2.775-.576zm.19 3.994c.39-.019.593.052.678.098.894.485 1.888 2.517 2.168 5.49.279 2.968-.049 6.58-.69 9.445-.732 3.044-2.917 6.678-5.687 9.203-2.774 2.529-5.96 3.873-8.793 3.287-1.43-.295-2.11-.824-2.616-1.597-.505-.774-.806-1.942-.822-3.465-.032-3.023 1.097-7.22 2.46-11.176.952-2.234 3.39-5.196 6.097-7.453 2.717-2.266 5.839-3.768 7.205-3.832z" id="path4138"/><path id="path4204" d="M314.689 897.519c-1.713-.008-3.543.35-5.45 1.185-7.624 3.339-19.373 11.577-27.888 21.567-2.016-14.76-8.6-20.005-16.264-18.385-7.664 1.62-12.362 3.897-24.234 14.215-8.568 7.445-16.162 19.193-22.08 30.685.63-7.583 1.93-18.746 3.535-34.824 1.605-16.078-4.327-13.038-11.315-11.137-4.853 1.321-11.656 5.492-11.9 11.9-.114 2.981-1.244 4.65-1.533 8.391-.986-3.723-2.064-7.137-3.883-8.984-2.395-2.432-6.123-2.78-11.145-2.291-8.837.859-10.453 6.113-12.822 11.49-1.744 3.752-4.965 11.61-8.963 17.97-2.372-7.638-3.08-17.628-4.201-23.275-.996-3.02-1.382-5.742-9.898-5.656-8.516.086-11.418 13.436-11.418 13.436s-5.134 13.118-8.123 24.877c-3.925-10.683-9.3-14.84-19.85-15.79-10.55-.948-24.499 8.31-31.777 18.489-7.28 10.178-8.788 25.674-11.211 34.295-8.787 5.439-18.63 7.784-27.4 7.955-8.771.171-11.15-11.975-7.602-19.268 3.547-7.292 14.427-20.541 19.8-23.865 2.722 4.455 4.753 12.698 14.848 5.606 10.095-7.092 3.18-22.897.354-31.239-2.827-8.341-10.233-6.388-18.385-1.414-8.152 4.975-18.765 11.171-32.525 30.406-6.382 8.92-12.762 23.385-11.079 36.428 1.684 13.043 8.734 19.2 14.26 23.676 11.09 8.984 33.983 4.475 42.25-.531 8.267-5.007 9.663-4.039 8.89-12.572 9.658 8.26 11.5 10.432 26.995 9.214 15.495-1.218 27.04-15.373 28.285-22.982.103-.63 1.06-.354 1.06-.354s3.178.944 6.364 1.414c3.186.471 6.448 2.536 8.13-5.656 1.684-8.191 6.077-23.724 9.444-30.74 1.682 4.155 1.262 4.768 1.266 15.822 0 4.384-.365 10.058 9.484 7.692 3.95-.95 6.277-3.02 8.506-7.2 3.46-5.666 5.589-12.197 9.455-17.798.417 4.02.43 12.516.385 16.668-.045 4.15-.781 7.555 4.096 8.132s13.004-1.285 12.998-6.968c-.006-5.683 2.007-35.466 3.412-38.817 1.762 6.103 3.874 34.989 3.681 39.05-.192 4.06-.773 14.954 8.463 9.231 2.256-1.398 3.565-2.034 4.612-2.65 1.888-1.111 2.739-2.74 3.164-4.96.66-3.451-.494-8.524.44-11.65 2.298 4.774 11.825 14.33 22.993 14.378 7.224.03 17.342-2.063 23.219-6.108 5.877-4.044 11.418-7.687 12.02-12.781 1.704-14.422-6.914-10.567-10.569-7.424-3.655 3.143-6.873 6.047-14.094 7.256-7.22 1.21-10.93-7.14-5.95-15.762 4.979-8.62 12.352-12.621 16.263-14.892 2.286 2.729 2.924 4.841 6.195 6.822 3.271 1.98 8.735 1.79 11.233-1.748 1.146 4.6.955 6.324 4.181 9.277 3.227 2.953 14.104 1.875 19.684 1.692 5.58-.184 7.71.725 7.775 2.543.158 4.361-6.982 7.129-13.674 9.968-1.983.842-4.444 1.685-6.783 1.766-5.451.189-10.318 2.554-8.48 12.605 2.612 14.287 9.564 9.19 19.263 6.551 9.7-2.639 33.71-14.372 32.127-30.967-1.583-16.594-10.777-14.31-15.328-14.37a56.943 56.943 0 0 1-5.04-.303c-2.518-.257-4.6-.94-5.087-3.358-.792-3.94 7.102-7.527 10.524-8.965 3.422-1.437 6.572-1.606 7.802-3.123 1.714-2.112.598-5.052-.355-6.857-1.925-3.646-6.011-6.965-11.15-6.988zm-210.78 56.533c.657-.031 1.243.073 1.727.336 3.873 2.102 3.85 11.012 2.474 17.146-1.695 7.09-9.464 15.521-16.835 13.996-7.372-1.525-5.24-10.826-2.434-18.945 2.313-5.478 10.47-12.317 15.068-12.533z" style="fill:#ff0;fill-opacity:1;fill-rule:evenodd;stroke:none;stroke-width:.4px;stroke-linecap:butt;stroke-linejoin:miter;stroke-miterlimit:4;stroke-dasharray:none;stroke-opacity:1"/></g></g></svg>