<svg aria-hidden="true" style="width:0;height:0;position:absolute;overflow:hidden" xmlns="http://www.w3.org/2000/svg"><defs><symbol id="icon-mail" viewBox="0 0 32 32"><path d="M7 5.333h18a4.334 4.334 0 0 1 4.327 4.087l.007.246v12.667a4.334 4.334 0 0 1-4.087 4.327l-.246.007h-18a4.333 4.333 0 0 1-4.326-4.087l-.007-.246V9.667a4.333 4.333 0 0 1 4.087-4.326l.246-.007zm20.333 7.164-10.868 5.721c-.25.131-.542.15-.803.056l-.128-.056-10.868-5.72v9.835c0 1.224.943 2.228 2.142 2.326l.191.008h18a2.335 2.335 0 0 0 2.326-2.142l.008-.191v-9.836zM25 7.333H7a2.335 2.335 0 0 0-2.326 2.142l-.008.191v.572l11.333 5.965 11.333-5.966v-.571A2.335 2.335 0 0 0 25.19 7.34l-.191-.008z"/></symbol><symbol id="icon-phone" viewBox="0 0 32 32"><path d="M22 27.999c-9.925 0-18-8.075-18-18a7.028 7.028 0 0 1 6.113-6.95 2.034 2.034 0 0 1 2.088 1.2l2.513 5.863A1.985 1.985 0 0 1 14.539 12l-2.075 3.175a9.566 9.566 0 0 0 4.4 4.375l3.137-2.088a1.958 1.958 0 0 1 1.888-.163l5.863 2.5a2.031 2.031 0 0 1 1.2 2.087 7.029 7.029 0 0 1-6.95 6.113zM10.363 5.036A5.003 5.003 0 0 0 6 9.999a16.012 16.012 0 0 0 16 16 5.002 5.002 0 0 0 4.963-4.363l-5.863-2.5-3.125 2.087a1.997 1.997 0 0 1-1.962.138 11.56 11.56 0 0 1-5.35-5.325 1.999 1.999 0 0 1 .125-1.963l2.088-3.175-2.513-5.862z"/></symbol><symbol id="icon-location" viewBox="0 0 28 32"><path d="M5.101 4.99c5.038-5.038 13.205-5.038 18.243 0s5.038 13.205 0 18.243l-1.758 1.739a958.133 958.133 0 0 1-5.046 4.907 3.334 3.334 0 0 1-4.634 0l-5.172-5.031c-.65-.638-1.194-1.176-1.632-1.615-5.038-5.038-5.038-13.205 0-18.243zm16.672 1.571c-4.17-4.17-10.93-4.17-15.1 0s-4.17 10.93 0 15.1l2.203 2.174c1.213 1.187 2.738 2.669 4.575 4.445a1.11 1.11 0 0 0 1.545 0l5.03-4.891c.695-.682 1.277-1.258 1.748-1.729 4.17-4.17 4.17-10.931 0-15.1zm-7.55 3.511a4.447 4.447 0 1 1 0 8.894 4.447 4.447 0 0 1 0-8.894zm0 2.223a2.224 2.224 0 1 0 0 4.448 2.224 2.224 0 0 0 0-4.448z"/></symbol><symbol id="icon-close-one" viewBox="0 0 32 32"><path d="m26.667 7.303-1.97-1.97-7.808 7.808-7.808-7.808-1.97 1.97 7.808 7.808-7.808 7.808 1.97 1.97 7.808-7.808 7.808 7.808 1.97-1.97-7.808-7.808 7.808-7.808z"/></symbol><symbol id="icon-close-two" viewBox="0 0 32 32"><path d="M32 3.223 28.777 0 16 12.777 3.223 0 0 3.223 12.777 16 0 28.777 3.223 32 16 19.223 28.777 32 32 28.777 19.223 16 32 3.223z"/></symbol><symbol id="icon-close-three" viewBox="0 0 32 32"><path d="M32 3.223 28.777 0 16 12.777 3.223 0 0 3.223 12.777 16 0 28.777 3.223 32 16 19.223 28.777 32 32 28.777 19.223 16 32 3.223z"/></symbol><symbol id="icon-close-four" viewBox="0 0 32 32"><path d="M32 16c0 8.837-7.163 16-16 16S0 24.837 0 16 7.163 0 16 0s16 7.163 16 16z"/><path d="M22.4 10.782 21.218 9.6l-4.685 4.685L11.848 9.6l-1.182 1.182 4.685 4.685-4.685 4.685 1.182 1.182 4.685-4.685 4.685 4.685 1.182-1.182-4.685-4.685 4.685-4.685z"/></symbol><symbol id="icon-close-five" viewBox="0 0 32 32"><path d="M32 3.223 28.777 0 16 12.777 3.223 0 0 3.223 12.777 16 0 28.777 3.223 32 16 19.223 28.777 32 32 28.777 19.223 16 32 3.223z"/></symbol><symbol id="icon-github" viewBox="0 0 32 32"><path d="M16 0C7.212 0 0 7.212 0 16c0 7.499 5.262 14.312 12.25 16v-5.293c-.692.152-1.33.156-2.034-.052-.946-.279-1.714-.909-2.284-1.869-.364-.613-1.008-1.278-1.68-1.23l-.165-1.868c1.453-.124 2.711.886 3.457 2.14.332.558.713.884 1.203 1.029.473.14.982.072 1.574-.137.149-1.186.692-1.63 1.102-2.255v-.001c-4.167-.622-5.828-2.832-6.488-4.578-.874-2.317-.405-5.212 1.14-7.041.03-.036.084-.129.063-.194-.708-2.139.155-3.909.187-4.097.817.242.95-.243 3.551 1.337l.449.27c.188.112.129.048.317.034A13.544 13.544 0 0 1 16 7.723c1.136.015 2.273.178 3.404.484l.145.015c-.013-.002.04-.009.127-.062 3.248-1.968 3.132-1.324 4.003-1.608.032.188.883 1.987.182 4.099-.095.291 2.816 2.956 1.203 7.235-.659 1.746-2.32 3.957-6.487 4.578v.001c.534.814 1.176 1.247 1.173 2.927V32C26.738 30.312 32 23.499 32 16c0-8.788-7.212-16-16-16z"/></symbol><symbol id="icon-linkedin" viewBox="0 0 32 32"><path d="M31.992 32v-.001H32V20.263c0-5.741-1.236-10.164-7.948-10.164-3.227 0-5.392 1.771-6.276 3.449h-.093v-2.913h-6.364v21.364h6.627V21.42c0-2.785.528-5.479 3.977-5.479 3.399 0 3.449 3.179 3.449 5.657v10.401h6.62zM.528 10.636h6.635V32H.528V10.636zM3.843 0C1.722 0 0 1.721 0 3.843s1.721 3.879 3.843 3.879c2.121 0 3.843-1.757 3.843-3.879A3.846 3.846 0 0 0 3.843 0z"/></symbol><symbol id="icon-pictures" viewBox="0 0 33 32"><path d="m26.604 29.587-2.624-.72-.006-7.258 2.51.706 3.619-13.509-18.332-4.912L10.563 8.4H8.495l1.863-6.952 22.193 5.946-5.947 22.193zM23.039 32H0V9.023h23.039V32zm-1.998-20.979H1.998v13.985h19.043V11.021zM7.849 20.993l2.283-3.692 2.283 2.301 3.139-4.727 3.283 8.134H4.281l1.855-3.71 1.713 1.694zm-1.365-3.907a1.498 1.498 0 1 1-.002-2.996 1.498 1.498 0 0 1 .002 2.996z"/></symbol><symbol id="icon-magnifier" viewBox="0 0 32 32"><path d="m29.156 29.961-.709.709a2.006 2.006 0 0 1-2.838 0l-5.676-5.674c-.656-.658-.729-1.644-.281-2.412l-3.104-3.102a9.975 9.975 0 0 1-5.965 1.979C5.043 21.461.552 16.97.552 11.43S5.043 1.398 10.583 1.398c5.541 0 10.031 4.491 10.031 10.032 0 2.579-.98 4.923-2.58 6.7l3.035 3.035c.768-.447 1.754-.375 2.41.283l5.676 5.674c.784.785.784 2.056.001 2.839zM18.088 11.389c0-4.155-3.369-7.523-7.524-7.523a7.523 7.523 0 1 0-.001 15.046 7.525 7.525 0 0 0 7.525-7.523z"/></symbol><symbol id="icon-mail" viewBox="0 0 32 32"><path d="M7 5.333h18a4.334 4.334 0 0 1 4.327 4.087l.007.246v12.667a4.334 4.334 0 0 1-4.087 4.327l-.246.007h-18a4.333 4.333 0 0 1-4.326-4.087l-.007-.246V9.667a4.333 4.333 0 0 1 4.087-4.326l.246-.007zm20.333 7.164-10.868 5.721c-.25.131-.542.15-.803.056l-.128-.056-10.868-5.72v9.835c0 1.224.943 2.228 2.142 2.326l.191.008h18a2.335 2.335 0 0 0 2.326-2.142l.008-.191v-9.836zM25 7.333H7a2.335 2.335 0 0 0-2.326 2.142l-.008.191v.572l11.333 5.965 11.333-5.966v-.571A2.335 2.335 0 0 0 25.19 7.34l-.191-.008z"/></symbol><symbol id="icon-phone" viewBox="0 0 32 32"><path d="M22 27.999c-9.925 0-18-8.075-18-18a7.028 7.028 0 0 1 6.113-6.95 2.034 2.034 0 0 1 2.088 1.2l2.513 5.863A1.985 1.985 0 0 1 14.539 12l-2.075 3.175a9.566 9.566 0 0 0 4.4 4.375l3.137-2.088a1.958 1.958 0 0 1 1.888-.163l5.863 2.5a2.031 2.031 0 0 1 1.2 2.087 7.029 7.029 0 0 1-6.95 6.113zM10.363 5.036A5.003 5.003 0 0 0 6 9.999a16.012 16.012 0 0 0 16 16 5.002 5.002 0 0 0 4.963-4.363l-5.863-2.5-3.125 2.087a1.997 1.997 0 0 1-1.962.138 11.56 11.56 0 0 1-5.35-5.325 1.999 1.999 0 0 1 .125-1.963l2.088-3.175-2.513-5.862z"/></symbol><symbol id="icon-location" viewBox="0 0 28 32"><path d="M5.101 4.99c5.038-5.038 13.205-5.038 18.243 0s5.038 13.205 0 18.243l-1.758 1.739a958.133 958.133 0 0 1-5.046 4.907 3.334 3.334 0 0 1-4.634 0l-5.172-5.031c-.65-.638-1.194-1.176-1.632-1.615-5.038-5.038-5.038-13.205 0-18.243zm16.672 1.571c-4.17-4.17-10.93-4.17-15.1 0s-4.17 10.93 0 15.1l2.203 2.174c1.213 1.187 2.738 2.669 4.575 4.445a1.11 1.11 0 0 0 1.545 0l5.03-4.891c.695-.682 1.277-1.258 1.748-1.729 4.17-4.17 4.17-10.931 0-15.1zm-7.55 3.511a4.447 4.447 0 1 1 0 8.894 4.447 4.447 0 0 1 0-8.894zm0 2.223a2.224 2.224 0 1 0 0 4.448 2.224 2.224 0 0 0 0-4.448z"/></symbol><symbol id="icon-params" viewBox="0 0 32 32"><path d="M8 6.021V3c0-1.654-1.346-3-3-3S2 1.346 2 3v3.021C.792 6.936 0 8.369 0 10s.792 3.064 2 3.977V29c0 1.654 1.346 3 3 3s3-1.346 3-3V13.977c1.208-.912 2-2.346 2-3.977s-.792-3.064-2-3.979zM4 3a1 1 0 1 1 2 0v2.1a5.062 5.062 0 0 0-2 0V3zm2 26a1 1 0 1 1-2 0V14.898a4.916 4.916 0 0 0 2 0V29zm1.865-18.16c-.016.053-.03.105-.049.158a2.944 2.944 0 0 1-.378.736l-.014.016a3.026 3.026 0 0 1-.616.627l-.01.008c-.241.182-.51.328-.799.43-.313.113-.646.185-.999.185s-.686-.072-1-.186a2.962 2.962 0 0 1-.799-.43l-.01-.008a3.026 3.026 0 0 1-.616-.627l-.014-.016a2.979 2.979 0 0 1-.378-.736c-.019-.053-.033-.105-.049-.158A2.945 2.945 0 0 1 2 10c0-.295.055-.574.135-.842.016-.053.03-.105.049-.156.094-.264.216-.514.378-.738l.014-.016c.174-.236.381-.449.616-.627l.01-.008c.24-.179.509-.326.798-.429C4.314 7.072 4.647 7 5 7s.686.072 1 .184c.289.104.558.25.799.43l.01.008c.235.178.442.391.616.627l.014.016a2.931 2.931 0 0 1 .426.893c.08.268.135.547.135.842 0 .293-.055.572-.135.84zM30 6.021V3c0-1.654-1.346-3-3-3s-3 1.346-3 3v3.021c-1.209.915-2 2.348-2 3.979s.791 3.064 2 3.977V29c0 1.654 1.346 3 3 3s3-1.346 3-3V13.977c1.207-.912 2-2.346 2-3.977s-.793-3.064-2-3.979zM26 3a1 1 0 1 1 2 0v2.1a5.077 5.077 0 0 0-2 0V3zm2 26a1 1 0 1 1-2 0V14.898a4.902 4.902 0 0 0 2 0V29zm1.865-18.16c-.016.053-.031.105-.049.158a2.947 2.947 0 0 1-.379.736l-.014.016a3.046 3.046 0 0 1-.615.627l-.01.008c-.242.182-.51.328-.799.43A2.932 2.932 0 0 1 27 13a2.91 2.91 0 0 1-1-.186 2.947 2.947 0 0 1-.809-.438 3.006 3.006 0 0 1-.617-.627l-.014-.016a2.975 2.975 0 0 1-.377-.736c-.02-.053-.033-.105-.049-.158A2.945 2.945 0 0 1 24 10c0-.295.055-.574.135-.842.016-.053.029-.105.049-.156.094-.264.217-.514.377-.738l.014-.016c.174-.236.381-.449.617-.627l.01-.008c.24-.18.51-.326.799-.43A2.97 2.97 0 0 1 27 7c.352 0 .686.072 1 .184a3.093 3.093 0 0 1 .809.438c.234.178.441.391.615.627l.014.016c.162.225.283.475.379.738.018.051.033.104.049.156.079.267.134.546.134.841 0 .293-.055.572-.135.84zM19 18.021V3c0-1.654-1.346-3-3-3s-3 1.346-3 3v15.021c-1.208.914-2 2.348-2 3.979s.792 3.064 2 3.977V29c0 1.654 1.346 3 3 3s3-1.346 3-3v-3.023c1.207-.912 2-2.346 2-3.977s-.793-3.064-2-3.979zM15 3a1 1 0 1 1 2 0v14.1a5.062 5.062 0 0 0-2 0V3zm2 26a1 1 0 1 1-2 0v-2.102a4.916 4.916 0 0 0 2 0V29zm1.865-6.16c-.016.053-.031.105-.049.158a2.947 2.947 0 0 1-.379.736l-.014.016a3.046 3.046 0 0 1-.615.627l-.01.008c-.242.182-.51.328-.799.43-.313.113-.647.185-.999.185s-.686-.072-1-.186a2.962 2.962 0 0 1-.799-.43l-.01-.008a3.026 3.026 0 0 1-.616-.627l-.014-.016a2.979 2.979 0 0 1-.378-.736c-.019-.053-.033-.105-.049-.158A2.945 2.945 0 0 1 13 22c0-.295.055-.574.135-.842.016-.053.03-.105.049-.156.095-.264.217-.514.378-.738l.014-.016c.174-.236.381-.449.616-.627l.01-.008c.241-.18.51-.326.799-.43.313-.111.646-.183.999-.183.352 0 .686.072 1 .184a3.093 3.093 0 0 1 .809.438c.234.178.441.391.615.627l.014.016c.162.225.283.475.379.738.018.051.033.104.049.156.079.267.134.546.134.841 0 .293-.055.572-.135.84z"/></symbol><symbol id="icon-marvel" viewBox="0 0 44 32"><path style="fill:var(--color1,#000)" d="M1.193 0v32h17.916v-6.049l2.688 6.039 2.688-6.039v6.05h17.916V8.998h-2.399V.001h-3.185v11.767h-.492V8.999H33.61V7.226h2.715V4.467H33.61V2.694h2.715V.002h-8.083l-.789 6.032L26.92.002h-2.861l1.609 11.767h-.929c-.009-.001-.128-.013-.284-.183-.163-.177-.351-.534-.302-1.309l.001-.008V8.206c0-.323-.017-.773-.208-1.221a2.068 2.068 0 0 0-.82-.939c.36-.296.601-.673.748-1.075.194-.532.238-1.108.232-1.649-.01-.939-.138-1.762-.602-2.372S22.253.003 21.091.003H17.73v10.851L15.598.003h-3.172L10.21 11.282V.003H6.96L5.783 4.771 4.745.003H1.194zm.521.521h2.611l1.188 5.454.507.007L7.368.521h2.321v11.767h.853L12.854.521h2.315l2.312 11.767h.769V.521h2.841c1.067 0 1.647.278 1.998.741s.487 1.171.496 2.063c.005.507-.04 1.025-.201 1.465s-.424.803-.89 1.054l-.489.263.515.207c.543.219.801.534.946.874s.166.713.166 1.015v2.055l.001-.017c-.055.872.166 1.4.439 1.695s.606.348.606.348l.017.002h1.57L24.656.519h1.788l.7 7.925.517.011L28.699.519h1.696l-1.933 11.767h2.94V.519h4.403V2.17H33.09v2.814h2.715v1.718H33.09v2.814h2.715v2.769h1.533V.518h2.144v8.997h2.399v21.962H25.006v-6.754l-.498-.106-2.71 6.09-2.71-6.09-.498.106v6.754H1.715V.518zm29.168.252v10.993h-1.807L30.882.773zM20.764 2.22a.992.992 0 0 0-.36.003l-.212.04v2.979l.193.052c.382.102.77-.062 1.038-.352s.439-.712.439-1.196c0-.277-.1-.645-.323-.981-.167-.252-.437-.484-.775-.544zm-7.011.225-.764 5.803h2.045l-.764-5.803h-.516zm6.96.292c.161.033.281.147.393.315.155.235.236.575.236.694 0 .36-.131.659-.301.843a.61.61 0 0 1-.328.191V2.737zm-6.702 1.736.429 3.255h-.857l.429-3.255zm-10.21.661-.512.065v7.089h2.35L3.801 5.134zm3.8 0-1.838 7.154h2.351V5.199l-.512-.065zm13.016 1.558a1.475 1.475 0 0 0-.187.005l-.238.021v5.57h2.187v-.521c-.054 0-.066-.006-.111-.067s-.095-.181-.129-.336c-.068-.309-.08-.74-.08-1.106V8.197c0-.322-.131-.669-.373-.961s-.611-.527-1.069-.544zm.096.551c.234.041.43.153.572.324.166.201.254.463.254.63v2.061c0 .375.006.828.093 1.218.022.101.05.198.087.29h-1.005V7.243zm-13.12.014v4.51H6.434l1.159-4.51zm-3.783.001 1.158 4.509H3.81V7.258zm9.015 2.236-.03.226-.336 2.567h3.104l-.366-2.794h-2.371zm.457.52h1.458l.23 1.752h-1.917l.23-1.752z"/><path fill="red" style="fill:var(--color2,red)" d="M1.454.26v31.479h17.395v-7.014l2.948 6.624 2.948-6.624v7.014H42.14V9.257h-2.399V.26h-2.664v11.767h-1.012V9.258H33.35V6.964h2.715V4.726H33.35V2.432h2.715V.261h-4.924v11.767h-2.373L30.702.261h-2.231l-1.068 8.162-.721-8.162h-2.324l1.609 11.767h-1.255s-.923-.121-.819-1.769V8.204c0-.625-.074-1.646-1.275-2.13 1.048-.565 1.239-1.702 1.227-2.751-.02-1.831-.526-3.062-2.755-3.062h-3.101v11.767h-.294L15.383.261H12.64l-2.312 11.767h-.379V.261H7.164L5.768 5.92 4.536.261zm20.148 3.486c0 .844-.603 1.443-1.149 1.297V2.48c.788-.149 1.149.87 1.149 1.267zm-7.591-1.267.726 5.508h-1.451zM3.549 5.198l1.754 6.829H3.549zm4.305 0v6.829H6.1zm12.753 1.754c.753.028 1.191.756 1.191 1.246v2.061c0 .741.037 1.769.581 1.769h-1.927V6.957c.053-.005.105-.006.155-.004zm-7.553 2.802h1.915l.298 2.273h-2.51z"/><path style="fill:var(--color1,#000)" d="M40.957 11.999a2.013 2.013 0 0 0-.815.176c-.943.413-2.273 1.346-3.363 2.503-.156-.726-.408-1.272-.758-1.634a1.662 1.662 0 0 0-1.575-.471c-1.025.217-1.714.556-3.271 1.908-.872.758-1.651 1.823-2.315 2.948.091-.906.18-1.754.331-3.264.054-.538.049-.927-.019-1.227s-.224-.532-.446-.636c-.222-.104-.454-.083-.674-.039s-.441.116-.661.176c-.353.096-.76.287-1.101.58s-.621.704-.64 1.21c-.001.033-.014.063-.018.094a1.446 1.446 0 0 0-.241-.344c-.398-.404-.983-.441-1.661-.375-.624.061-1.047.297-1.322.616s-.41.692-.56 1.033c-.18.388-.487 1.065-.838 1.723-.174-.829-.261-1.751-.382-2.36l-.003-.015-.005-.015c-.061-.184-.12-.445-.36-.64s-.596-.281-1.178-.275c-.69.007-1.133.543-1.386 1.016-.24.45-.334.865-.344.908a43.643 43.643 0 0 0-.865 2.612c-.21-.402-.445-.752-.753-.996-.46-.364-1.037-.543-1.753-.607-.772-.069-1.611.226-2.386.697s-1.487 1.121-1.985 1.817c-.986 1.378-1.186 3.35-1.475 4.441a6.852 6.852 0 0 1-3.344.949c-.225.004-.387-.064-.524-.185s-.248-.303-.318-.524c-.14-.441-.104-1.023.092-1.426.212-.436.676-1.102 1.166-1.694a8.394 8.394 0 0 1 1.098-1.12c.122.241.262.512.52.724.179.147.429.242.709.216s.58-.156.932-.403c.754-.53.875-1.41.762-2.221s-.44-1.612-.619-2.141c-.104-.307-.261-.546-.47-.703s-.464-.221-.718-.216c-.508.011-1.039.262-1.586.596-1.057.645-2.497 1.495-4.309 4.028-.86 1.202-1.721 3.121-1.488 4.926.23 1.779 1.224 2.662 1.95 3.25.806.653 1.974.791 3.071.706s2.127-.391 2.726-.754c.526-.319.845-.431 1.08-.696a.931.931 0 0 0 .214-.497c.004-.028-.004-.072-.002-.102.384.323.723.589 1.107.74.526.208 1.136.235 2.158.154 1.082-.085 2.012-.617 2.693-1.253.612-.57 1.018-1.207 1.168-1.764.105.03.357.107.727.162.166.024.413.142.719.045.153-.048.297-.164.399-.328s.175-.374.234-.659c.161-.783.53-2.13.878-3.115.004.248 0 .522 0 1.121 0 .278-.039.653.182.977.11.162.298.288.529.333s.502.026.845-.056c.573-.138.965-.487 1.273-1.063.295-.485.527-.985.767-1.47.009.45.03.894.027 1.193-.003.256-.041.512.037.779.039.134.12.272.248.369s.289.149.478.172c.367.043.818 0 1.215-.166.199-.083.385-.198.529-.364s.239-.388.238-.635c0-.339.064-1.507.152-2.619.012-.154.027-.274.04-.424.022.225.048.428.067.655.047.55.086 1.093.112 1.529s.037.783.032.878c-.012.263-.056.766.108 1.186.082.21.251.424.513.483s.546-.028.877-.233c.285-.177.445-.253.595-.342.312-.184.472-.492.535-.821.051-.268.032-.549.021-.813.19.21.419.424.69.624.56.412 1.282.752 2.082.756.991.004 2.325-.259 3.171-.841.381-.262.761-.516 1.07-.805s.556-.626.605-1.042c.058-.493.036-.85-.07-1.125s-.331-.458-.567-.502c-.472-.088-.892.196-1.166.433-.479.412-.822.737-1.708.885-.366.061-.578-.087-.698-.386s-.1-.773.192-1.278c.542-.938 1.295-1.417 1.822-1.725.07.097.141.194.218.295.123.16.282.326.523.472.271.164.605.23.934.192a1.35 1.35 0 0 0 .513-.169c.022.095.043.21.075.3.078.214.212.416.443.627.329.301.821.321 1.337.331s1.058-.032 1.41-.043c.348-.011.578.017.681.053.047.016.058.028.061.031.002.069-.018.129-.086.212a1.407 1.407 0 0 1-.343.276c-.309.189-.752.371-1.19.557-.244.104-.542.201-.79.209-.39.013-.807.105-1.093.426s-.386.824-.258 1.522c.089.488.215.833.409 1.08s.47.371.74.386c.541.03 1.077-.244 1.682-.409.673-.183 1.782-.657 2.731-1.378s1.757-1.719 1.642-2.928c-.108-1.128-.506-1.709-.997-1.951s-1.004-.152-1.254-.155a7.304 7.304 0 0 1-.633-.038c-.148-.015-.265-.045-.329-.081s-.086-.057-.104-.148c-.008-.039 0-.083.061-.165s.174-.182.309-.274c.271-.185.627-.345.845-.436.2-.084.4-.133.589-.19s.383-.113.528-.292c.166-.205.193-.458.162-.664s-.111-.382-.18-.514c-.291-.551-.9-1.045-1.68-1.048zm-.002.52c.557.003 1.012.373 1.222.771.054.103.109.235.126.348s.005.188-.052.259c-.015.018-.106.072-.273.122s-.395.105-.641.208a5.516 5.516 0 0 0-.936.486c-.164.112-.317.237-.433.392s-.198.362-.155.579c.045.223.19.404.359.499s.352.127.532.145c.212.022.438.037.679.041.342.005.723-.05 1.031.102s.61.502.709 1.533c.091.95-.56 1.796-1.438 2.464s-1.962 1.13-2.552 1.29c-.657.179-1.204.409-1.517.391-.156-.009-.249-.046-.36-.187s-.225-.41-.306-.852c-.112-.611-.014-.916.134-1.082s.403-.241.722-.252c.361-.012.704-.135.976-.25.433-.184.89-.367 1.258-.592.184-.113.348-.236.474-.39s.213-.351.206-.565c-.004-.109-.047-.229-.124-.317s-.178-.144-.287-.183c-.219-.076-.491-.095-.869-.082-.374.012-.903.053-1.382.043s-.905-.112-.995-.195c-.189-.173-.253-.276-.305-.42s-.085-.348-.163-.658l-.1-.403.322-.378c1.077-1.264 2.598-2.326 3.536-2.737.217-.095.418-.133.604-.132zm-12.449.253c.058.027.113.074.159.28s.06.553.009 1.061c-.209 2.091-.378 3.541-.461 4.537l.491.141c.762-1.479 1.743-2.986 2.813-3.916 1.534-1.333 2.067-1.587 3.037-1.792.428-.091.778-.002 1.093.323s.585.923.712 1.85l.057.419-.288.408c-.112.159-.296.25-.511.275s-.449-.026-.604-.119c-.184-.112-.28-.213-.379-.343s-.2-.296-.362-.49l-.141-.168-.19.11c-.501.291-1.525.845-2.211 2.033-.356.617-.419 1.247-.224 1.733s.694.802 1.267.706c.994-.167 1.488-.597 1.961-1.004.201-.173.58-.344.732-.316.076.014.12.031.176.178s.092.431.039.876c-.029.246-.181.478-.444.723s-.626.492-1.009.756c-.684.471-1.984.753-2.873.749-.653-.003-1.278-.288-1.776-.654s-.865-.825-.983-1.07l-.292-.605-.192.644c-.08.269-.064.553-.052.828s.022.54-.011.714c-.048.249-.109.365-.288.47-.122.072-.303.161-.605.348-.27.167-.427.182-.488.168s-.097-.047-.143-.165c-.092-.235-.086-.705-.073-.971.008-.169-.006-.491-.032-.933s-.065-.988-.113-1.543c-.095-1.11-.207-2.215-.344-2.691l-.205-.709-.285.681c-.045.108-.062.214-.088.37s-.052.349-.077.57c-.051.441-.101.992-.145 1.552-.089 1.12-.154 2.26-.154 2.661 0 .123-.037.208-.111.293s-.192.165-.337.225c-.29.121-.685.161-.953.13-.128-.015-.193-.046-.226-.07s-.046-.044-.062-.099c-.032-.108-.019-.343-.016-.628.006-.545.007-1.639-.051-2.199l-.073-.701-.4.58c-.532.77-.81 1.627-1.238 2.329l-.004.006-.004.007c-.271.509-.485.697-.938.806-.298.072-.501.075-.622.051s-.162-.06-.2-.116c-.076-.112-.091-.391-.091-.683 0-.716.014-1.091-.001-1.38s-.069-.496-.183-.777l-.221-.546-.255.531c-.465.969-1.025 2.971-1.249 4.061-.051.248-.113.404-.165.488s-.081.097-.114.107c-.065.02-.237-.027-.486-.064a6.811 6.811 0 0 1-.792-.176h-.002s-.06-.021-.146-.018c-.043.002-.102.007-.171.049s-.136.136-.15.223c-.064.394-.451 1.086-1.066 1.659s-1.444 1.041-2.379 1.115c-.995.078-1.513.043-1.926-.12s-.767-.479-1.398-1.018l-.486-.416.058.637c.025.271.029.458.014.576s-.037.162-.087.218c-.1.113-.41.263-.96.596-.477.289-1.475.601-2.497.68s-2.066-.075-2.703-.591c-.713-.577-1.553-1.296-1.762-2.913-.205-1.59.595-3.437 1.395-4.556 1.77-2.473 3.092-3.237 4.157-3.886.513-.313.995-.513 1.326-.52.165-.003.288.032.395.112s.209.217.289.453c.189.557.496 1.327.596 2.046s.014 1.33-.546 1.723c-.306.215-.531.297-.681.311s-.235-.022-.33-.1c-.191-.157-.35-.537-.549-.863l-.136-.223-.223.138c-.414.256-.933.8-1.441 1.415s-.983 1.286-1.233 1.799a2.512 2.512 0 0 0-.12 1.811c.092.291.244.559.471.758s.532.32.878.313a7.35 7.35 0 0 0 3.698-1.074l.086-.053.027-.097c.33-1.173.536-3.146 1.42-4.383.45-.629 1.119-1.243 1.832-1.675s1.468-.677 2.069-.623c.657.059 1.116.212 1.477.497s.639.719.885 1.388l.29.788.207-.814c.383-1.506 1.047-3.207 1.047-3.207l.008-.019.004-.02s.09-.405.303-.803.513-.737.932-.741c.526-.005.749.081.844.158.091.074.124.186.188.382.137.7.23 2.006.552 3.042l.168.54.301-.479c.538-.856.962-1.894 1.182-2.368l.001-.002.001-.003c.158-.359.283-.677.478-.903s.452-.387.978-.438c.629-.061 1.014-.007 1.24.222.16.163.313.576.439 1.053l.511-.047c.034-.441.183-.652.2-1.102.012-.327.191-.605.459-.835s.619-.396.898-.472c.235-.064.452-.134.626-.168s.293-.028.351 0zm-14.995 6.585c-.421.02-.844.283-1.247.619s-.764.749-.942 1.171l-.003.008-.003.008c-.186.538-.358 1.12-.353 1.642.003.261.051.515.192.73s.377.372.671.433c.591.122 1.161-.152 1.601-.553s.77-.937.896-1.463l.001-.004c.095-.425.144-.933.1-1.394s-.164-.913-.552-1.123a.683.683 0 0 0-.361-.075zm.025.519a.175.175 0 0 1 .088.013c.116.063.246.328.282.715s-.006.856-.09 1.229c-.095.396-.38.869-.74 1.198s-.776.504-1.144.428c-.186-.038-.275-.107-.34-.208s-.105-.253-.107-.451c-.004-.393.143-.94.32-1.454.124-.291.441-.676.794-.97.354-.295.76-.49.938-.499z"/><path fill="#ff0" style="fill:var(--color3,#ff0)" d="M40.956 12.259a1.749 1.749 0 0 0-.709.154c-.992.434-2.521 1.507-3.63 2.807-.262-1.921-1.119-2.604-2.117-2.393s-1.609.507-3.154 1.85c-1.115.969-2.103 2.498-2.874 3.994.082-.987.251-2.44.46-4.532s-.563-1.697-1.473-1.449c-.632.172-1.517.715-1.549 1.549-.015.388-.162.605-.2 1.092-.128-.485-.269-.929-.505-1.169-.312-.317-.797-.362-1.45-.298-1.15.112-1.36.796-1.669 1.495-.227.488-.646 1.511-1.166 2.339-.309-.994-.401-2.294-.547-3.029-.13-.393-.18-.747-1.288-.736s-1.486 1.749-1.486 1.749-.668 1.707-1.057 3.238c-.511-1.39-1.21-1.931-2.583-2.055s-3.188 1.081-4.136 2.406c-.947 1.325-1.144 3.341-1.459 4.463-1.144.708-2.425 1.013-3.566 1.035s-1.451-1.559-.989-2.508c.462-.949 1.878-2.673 2.577-3.106.354.58.619 1.653 1.932.73s.414-2.98.046-4.066c-.368-1.086-1.332-.831-2.393-.184s-2.442 1.454-4.233 3.957C.907 20.753.077 22.635.296 24.333s1.137 2.499 1.856 3.081c1.443 1.169 4.423.582 5.499-.069s1.258-.526 1.157-1.636c1.257 1.075 1.497 1.358 3.513 1.199s3.519-2.001 3.681-2.991c.013-.082.138-.046.138-.046s.414.123.828.184c.415.061.839.33 1.058-.736s.791-3.088 1.229-4.001c.219.541.164.621.165 2.059 0 .571-.047 1.309 1.234 1.001.514-.123.817-.393 1.107-.937.45-.738.727-1.587 1.231-2.317.054.523.056 1.629.05 2.169s-.102.983.533 1.058c.635.075 1.692-.167 1.692-.907s.261-4.616.444-5.052c.229.794.504 4.554.479 5.082s-.101 1.946 1.101 1.202c.294-.182.464-.265.6-.345.246-.145.357-.357.412-.646.086-.449-.064-1.109.057-1.516.299.621 1.539 1.865 2.993 1.871.94.004 2.257-.268 3.022-.795s1.486-1 1.564-1.663c.222-1.877-.9-1.375-1.375-.966s-.895.787-1.834.944c-.94.157-1.423-.929-.775-2.051s1.608-1.643 2.117-1.938c.298.355.381.63.806.888s1.137.233 1.462-.227c.149.599.124.823.544 1.207s1.836.244 2.562.22c.726-.024 1.003.094 1.012.331.021.568-.909.928-1.78 1.297-.258.11-.578.219-.883.23-.709.025-1.343.332-1.104 1.641.34 1.859 1.245 1.196 2.507.853s4.387-1.871 4.181-4.03c-.206-2.16-1.403-1.862-1.995-1.87a7.376 7.376 0 0 1-.656-.039c-.328-.033-.599-.122-.662-.437-.103-.513.924-.98 1.37-1.167s.855-.209 1.016-.406c.223-.275.078-.658-.046-.892-.251-.475-.782-.906-1.451-.909zm-27.432 7.358a.429.429 0 0 1 .225.044c.504.274.501 1.433.322 2.232-.221.923-1.232 2.02-2.191 1.822s-.682-1.409-.317-2.466c.301-.713 1.363-1.603 1.961-1.631z"/></symbol></defs></svg>