<?xml version="1.0" encoding="UTF-8" standalone="no"?>
<!-- Created with Inkscape (http://www.inkscape.org/) -->

<svg
   xmlns:dc="http://purl.org/dc/elements/1.1/"
   xmlns:cc="http://creativecommons.org/ns#"
   xmlns:rdf="http://www.w3.org/1999/02/22-rdf-syntax-ns#"
   xmlns:svg="http://www.w3.org/2000/svg"
   xmlns="http://www.w3.org/2000/svg"
   xmlns:sodipodi="http://sodipodi.sourceforge.net/DTD/sodipodi-0.dtd"
   xmlns:inkscape="http://www.inkscape.org/namespaces/inkscape"
   width="335.39899"
   height="245.873"
   viewBox="0 0 335.39899 245.87298"
   id="svg2"
   version="1.1"
   inkscape:version="0.91 r13725"
   sodipodi:docname="Marvel Comics 1990.svg">
  <defs
     id="defs4" />
  <sodipodi:namedview
     id="base"
     pagecolor="#ffffff"
     bordercolor="#666666"
     borderopacity="1.0"
     inkscape:pageopacity="0.0"
     inkscape:pageshadow="2"
     inkscape:zoom="256"
     inkscape:cx="334.22676"
     inkscape:cy="244.97963"
     inkscape:document-units="px"
     inkscape:current-layer="layer1"
     showgrid="false"
     inkscape:window-width="1366"
     inkscape:window-height="705"
     inkscape:window-x="-8"
     inkscape:window-y="-8"
     inkscape:window-maximized="1"
     showguides="false"
     units="px" />
  <metadata
     id="metadata7">
    <rdf:RDF>
      <cc:Work
         rdf:about="">
        <dc:format>image/svg+xml</dc:format>
        <dc:type
           rdf:resource="http://purl.org/dc/dcmitype/StillImage" />
        <dc:title></dc:title>
      </cc:Work>
    </rdf:RDF>
  </metadata>
  <g
     inkscape:label="Layer 1"
     inkscape:groupmode="layer"
     id="layer1"
     transform="translate(0,-806.48897)">
    <g
       id="g4140"
       transform="translate(0,3.1613418)">
      <path
         style="color:#000000;font-style:normal;font-variant:normal;font-weight:normal;font-stretch:normal;font-size:medium;line-height:normal;font-family:sans-serif;text-indent:0;text-align:start;text-decoration:none;text-decoration-line:none;text-decoration-style:solid;text-decoration-color:#000000;letter-spacing:normal;word-spacing:normal;text-transform:none;direction:ltr;block-progression:tb;writing-mode:lr-tb;baseline-shift:baseline;text-anchor:start;white-space:normal;clip-rule:nonzero;display:inline;overflow:visible;visibility:visible;opacity:1;isolation:auto;mix-blend-mode:normal;color-interpolation:sRGB;color-interpolation-filters:linearRGB;solid-color:#000000;solid-opacity:1;fill:#000000;fill-opacity:1;fill-rule:evenodd;stroke:none;stroke-width:4;stroke-linecap:butt;stroke-linejoin:miter;stroke-miterlimit:4;stroke-dasharray:none;stroke-dashoffset:0;stroke-opacity:1;color-rendering:auto;image-rendering:auto;shape-rendering:auto;text-rendering:auto;enable-background:accumulate"
         d="m 9.1699219,803.32812 0,2 0,90.41016 0,153.46292 137.6581981,0 0,-46.4805 20.65235,46.3984 20.65234,-46.4023 0,46.4844 137.65821,0 0,-153.46292 0,-23.2793 -18.43164,0 0,-69.13086 -24.47071,0 0,90.41016 -3.77929,0 0,-21.2793 -20.85938,0 0,-13.625 20.85938,0 0,-21.19726 -20.85938,0 0,-13.625 20.85938,0 0,-20.6836 -40.85352,0 -0.97656,0 -20.27735,0 -6.0625,46.34766 -4.0957,-46.34766 -21.98047,0 12.35938,90.41016 -7.13868,0 c -0.0728,-0.006 -0.98106,-0.0975 -2.18554,-1.4043 -1.25358,-1.36004 -2.69581,-4.10543 -2.32032,-10.06054 l 0.004,-0.0625 0,-15.85352 c 0,-2.48085 -0.12784,-5.93757 -1.60156,-9.3789 -1.13218,-2.64381 -3.14506,-5.22981 -6.29688,-7.2168 2.76978,-2.27358 4.61812,-5.16825 5.7461,-8.26172 1.49001,-4.08634 1.82773,-8.51293 1.7832,-12.66992 -0.0773,-7.2153 -1.06335,-13.54198 -4.625,-18.22852 -3.56165,-4.68654 -9.61068,-7.27344 -18.54101,-7.27344 l -25.82813,0 0,83.3711 -16.37891,-83.3711 -24.369137,0 -17.025391,86.66211 0,-86.66211 -24.96875,0 -9.041015,36.63868 -7.978516,-36.63868 -27.2871091,0 z m 4.0000001,4 20.064453,0 9.125,41.90626 3.896484,0.0527 10.353516,-41.95899 17.835937,0 0,90.41016 6.554688,0 17.761719,-90.41016 17.787111,0 17.76172,90.41016 5.9082,0 0,-90.41016 21.82813,0 c 8.19439,0 12.65199,2.13799 15.35546,5.69532 2.70348,3.55733 3.73907,8.99349 3.8125,15.84961 0.0418,3.89935 -0.30923,7.87236 -1.54296,11.25586 -1.23374,3.3835 -3.25995,6.17078 -6.8379,8.09765 l -3.7539,2.02149 3.95508,1.59375 c 4.17518,1.68339 6.15086,4.10065 7.26953,6.71289 1.11866,2.61224 1.27734,5.4803 1.27734,7.80273 l 0,15.79102 0.004,-0.12696 c -0.4227,6.70373 1.27864,10.75327 3.37109,13.02344 2.09246,2.27017 4.65625,2.67578 4.65625,2.67578 l 0.13086,0.0176 12.0625,0 -12.35937,-90.41016 13.73437,0 5.38086,60.89258 3.97461,0.084 7.97461,-60.97657 13.03125,0 -14.85547,90.41016 22.5918,0 0,-90.41016 33.83008,0 0,12.6836 -20.85938,0 0,21.625 20.85938,0 0,13.19726 -20.85938,0 0,21.625 20.85938,0 0,21.2793 11.77929,0 0,-90.41016 16.47071,0 0,69.13086 18.43164,0 0,19.2793 0,149.46292 -129.65821,0 0,-51.89261 -3.82812,-0.81445 -20.82422,46.78906 -20.82617,-46.78906 -3.82618,0.81445 0,51.89261 -129.658198,0 0,-149.46292 0,-88.41016 z m 224.109378,1.94141 0,84.46875 -13.88086,0 13.88086,-84.46875 z m -77.73633,11.11914 c -0.86726,-0.15343 -1.79276,-0.15845 -2.76758,0.0254 l -1.62891,0.30664 0,22.88868 1.48243,0.39648 c 2.93481,0.78638 5.91476,-0.4736 7.97461,-2.70117 2.05984,-2.22758 3.375,-5.47403 3.375,-9.19336 0,-2.13177 -0.77003,-4.95735 -2.47852,-7.54102 -1.28137,-1.93775 -3.35525,-3.72135 -5.95703,-4.18164 z m -53.87109,1.72852 -5.873052,44.58398 15.712892,0 -5.87305,-44.58398 -3.96679,0 z m 53.4746,2.24023 c 1.23853,0.25566 2.1622,1.12637 3.01758,2.41992 1.19422,1.80596 1.81446,4.41783 1.81446,5.33399 0,2.76627 -1.00538,5.063 -2.3125,6.47656 -0.8189,0.88558 -1.67439,1.28421 -2.51954,1.46484 l 0,-15.69531 z m -51.49023,13.33594 3.29297,25.00781 -6.58789,0 3.29492,-25.00781 z m -78.449219,5.07812 -3.935547,0.49805 0,54.46875 18.058594,0 -14.123047,-54.9668 z m 29.199219,0 -14.123047,54.9668 18.060547,0 0,-54.46875 -3.9375,-0.49805 z m 100.00391,11.97461 c -0.46715,-0.0177 -0.94692,-0.007 -1.4375,0.0352 l -1.82618,0.1582 0,42.79883 12.33399,0 4.4707,0 0,-4 c -0.41334,0 -0.50645,-0.0476 -0.85156,-0.51367 -0.34511,-0.46606 -0.73194,-1.3921 -0.99414,-2.57813 -0.52441,-2.37205 -0.61719,-5.68563 -0.61719,-8.49804 l 0,-15.83399 c 0,-2.47757 -1.01018,-5.14045 -2.86523,-7.38672 -1.85506,-2.24626 -4.6925,-4.04865 -8.21289,-4.18164 z m 0.73632,4.23633 c 1.7998,0.31763 3.30526,1.17557 4.39258,2.49219 1.27511,1.54401 1.94922,3.55638 1.94922,4.83984 l 0,15.83399 c 0,2.87976 0.0497,6.3615 0.71289,9.36133 0.17146,0.77557 0.38668,1.52037 0.66992,2.22851 l -7.72461,0 0,-34.75586 z m -100.80273,0.10352 0,34.65234 -8.902344,0 8.902344,-34.65234 z m -29.072266,0.008 8.900391,34.64453 -8.900391,0 0,-34.64453 z m 69.273438,17.17969 -0.228516,1.74023 -2.583984,19.72461 23.847658,0 -2.81446,-21.46484 -18.220698,0 z m 3.509768,4 11.20117,0 1.76367,13.46484 -14.72851,0 1.76367,-13.46484 z"
         id="path4136"
         inkscape:connector-curvature="0" />
      <path
         sodipodi:nodetypes="ccccccccccccccccccccccccccccccccccccscsscccccccccccccccccccccccccccccsscccccccccc"
         style="fill:#ff0000;fill-opacity:1;fill-rule:evenodd;stroke:none;stroke-width:1px;stroke-linecap:butt;stroke-linejoin:miter;stroke-opacity:1"
         d="m 11.169051,805.32768 0,90.41016 0,151.46286 133.658199,0 0,-53.89255 22.65234,50.89285 22.65235,-50.89285 0,53.89255 133.6582,0 0,-151.46286 0,-21.2793 -18.43164,0 0,-69.13086 -20.4707,0 0,90.41016 -7.7793,0 0,-21.2793 -20.85938,0 0,-17.625 20.85938,0 0,-17.19726 -20.85938,0 0,-17.625 20.85938,0 0,-16.6836 -37.83008,0 0,90.41016 -18.23633,0 14.85742,-90.41016 -17.14257,0 -8.20313,62.7168 -5.54101,-62.7168 -17.85743,0 12.35938,90.41016 -9.64063,0 c 0,0 -7.09115,-0.931 -6.29296,-13.58984 l 0,-15.79102 c 0,-4.80329 -0.57071,-12.64845 -9.79883,-16.36914 8.05459,-4.33774 9.51793,-13.08037 9.43164,-21.13672 -0.15071,-14.07141 -4.04324,-23.52344 -21.16797,-23.52344 l -23.82813,0 0,90.41016 -2.26171,0 -17.76172,-90.41016 -21.078125,0 -17.76172,90.41016 -2.91015,0 0,-90.41016 -21.40235,0 -10.728513,43.48047 -9.46875,-43.48047 z m 154.808589,26.78321 c 0,6.4856 -4.63585,11.08725 -8.83203,9.96289 l 0,-19.69532 c 6.05321,-1.1416 8.83203,6.6845 8.83203,9.73243 z m -58.32227,-9.73243 5.57618,42.32227 -11.15235,0 z m -80.384757,20.89063 13.480469,52.46875 -13.480469,0 z m 33.072262,0 0,52.46875 -13.480465,0 z m 97.992185,13.47461 c 5.78403,0.21849 9.15234,5.80927 9.15234,9.57031 l 0,15.83399 c 0,5.69217 0.28754,13.58984 4.4629,13.58984 l -4.47071,0 -10.33398,0 0,-38.96484 c 0.40678,-0.0353 0.80385,-0.0439 1.18945,-0.0293 z m -58.03516,21.5293 14.71094,0 2.28906,17.46484 -19.289055,0 z"
         id="path4202"
         inkscape:connector-curvature="0" />
      <path
         style="color:#000000;font-style:normal;font-variant:normal;font-weight:normal;font-stretch:normal;font-size:medium;line-height:normal;font-family:sans-serif;text-indent:0;text-align:start;text-decoration:none;text-decoration-line:none;text-decoration-style:solid;text-decoration-color:#000000;letter-spacing:normal;word-spacing:normal;text-transform:none;direction:ltr;block-progression:tb;writing-mode:lr-tb;baseline-shift:baseline;text-anchor:start;white-space:normal;clip-rule:nonzero;display:inline;overflow:visible;visibility:visible;opacity:1;isolation:auto;mix-blend-mode:normal;color-interpolation:sRGB;color-interpolation-filters:linearRGB;solid-color:#000000;solid-opacity:1;fill:#000000;fill-opacity:1;fill-rule:evenodd;stroke:none;stroke-width:4;stroke-linecap:butt;stroke-linejoin:miter;stroke-miterlimit:4;stroke-dasharray:none;stroke-dashoffset:0;stroke-opacity:1;color-rendering:auto;image-rendering:auto;shape-rendering:auto;text-rendering:auto;enable-background:accumulate"
         d="m 314.69727,895.51953 c -1.99904,-0.009 -4.11572,0.41473 -6.25977,1.35352 -7.24891,3.17399 -17.46534,10.34378 -25.83984,19.22851 -1.20196,-5.57669 -3.13433,-9.77683 -5.82227,-12.55664 -3.29155,-3.40405 -7.72884,-4.53915 -12.10156,-3.61523 -7.87382,1.66366 -13.17307,4.26884 -25.13281,14.66211 -6.70187,5.82406 -12.6867,14.00771 -17.78907,22.64843 0.7015,-6.96339 1.3865,-13.47866 2.54493,-25.08007 0.41284,-4.13455 0.37463,-7.12213 -0.14649,-9.42969 -0.52112,-2.30756 -1.71864,-4.08825 -3.42773,-4.89063 -1.70909,-0.80237 -3.48778,-0.63508 -5.17774,-0.29882 -1.68995,0.33626 -3.39028,0.89473 -5.07617,1.35351 -2.71295,0.73828 -5.83764,2.20434 -8.45703,4.45508 -2.61939,2.25074 -4.7698,5.40667 -4.91797,9.30078 -0.01,0.25498 -0.10972,0.48268 -0.13867,0.72461 -0.51867,-0.96864 -1.10033,-1.88157 -1.85352,-2.64648 -3.0561,-3.10369 -7.55395,-3.38491 -12.76172,-2.87891 -4.79774,0.46616 -8.04435,2.28472 -10.1582,4.73633 -2.11385,2.4516 -3.1474,5.31761 -4.30273,7.93945 -1.38527,2.98265 -3.7404,8.18307 -6.4375,13.24219 -1.33646,-6.36995 -2.00525,-13.45487 -2.9336,-18.13086 l -0.0234,-0.11914 -0.0391,-0.11719 c -0.46617,-1.4141 -0.92213,-3.41641 -2.76562,-4.91797 -1.8435,-1.50156 -4.58144,-2.15646 -9.05274,-2.11133 -5.30061,0.0535 -8.70189,4.16933 -10.64648,7.80664 -1.84702,3.45482 -2.56899,6.64697 -2.64258,6.97852 -0.0433,0.11055 -3.66893,9.8805 -6.64258,20.06836 -1.614,-3.0864 -3.41785,-5.78125 -5.78906,-7.65625 -3.53509,-2.79533 -7.96669,-4.17087 -13.4707,-4.66602 -5.93106,-0.53356 -12.377319,1.74017 -18.332034,5.35352 -5.954715,3.61334 -11.425831,8.61531 -15.25,13.96289 -7.573737,10.59083 -9.110708,25.7382 -11.330078,34.11914 -8.266203,4.93009 -17.475546,7.13454 -25.69336,7.29492 -1.729445,0.0338 -2.970404,-0.4893 -4.029297,-1.41797 -1.058892,-0.92866 -1.907296,-2.32992 -2.445312,-4.02343 -1.076033,-3.38704 -0.796637,-7.85783 0.708984,-10.95313 1.630153,-3.35131 5.193292,-8.46424 8.958985,-13.01953 3.06539,-3.70814 6.130015,-6.73226 8.4375,-8.60352 0.934731,1.85018 2.01478,3.9369 3.996093,5.5625 1.376048,1.12901 3.298817,1.86176 5.449219,1.66016 2.150402,-0.2016 4.459569,-1.20174 7.158203,-3.09766 5.794967,-4.07122 6.72256,-10.83112 5.853516,-17.0625 -0.869045,-6.23138 -3.378192,-12.38811 -4.75586,-16.45312 -0.799572,-2.35926 -2.001636,-4.19259 -3.613281,-5.39844 -1.611645,-1.20585 -3.564567,-1.70096 -5.517578,-1.66015 -3.906023,0.0816 -7.982843,2.0112 -12.189453,4.57812 -8.123728,4.9572 -19.183656,11.48531 -33.109375,30.95117 -6.6094702,9.23895 -13.225086,23.98229 -11.435547,37.84766 1.7639105,13.66673 9.4082987,20.45513 14.984375,24.97263 6.194884,5.0189 15.164549,6.0742 23.595703,5.4219 8.431154,-0.6523 16.343468,-3.0078 20.949219,-5.7969 4.042136,-2.4478 6.491781,-3.3093 8.296875,-5.3457 0.902547,-1.0182 1.453755,-2.3564 1.640625,-3.8222 0.02757,-0.2163 -0.03008,-0.5561 -0.01367,-0.7813 2.951924,2.4853 5.555211,4.525 8.503906,5.6895 4.042906,1.5965 8.731814,1.8023 16.578125,1.1855 8.312277,-0.6533 15.456867,-4.7424 20.693357,-9.625 4.69927,-4.38167 7.81971,-9.27615 8.97656,-13.55273 0.80283,0.22945 2.74658,0.82208 5.58985,1.24219 1.2723,0.18799 3.16981,1.08903 5.52148,0.34766 1.17584,-0.37069 2.28365,-1.26262 3.06641,-2.51954 0.78276,-1.25691 1.3452,-2.87166 1.79492,-5.06054 1.23642,-6.01799 4.07207,-16.36207 6.74805,-23.93164 0.0322,1.90555 4e-4,4.01238 0.002,8.61132 4.9e-4,2.13609 -0.2979,5.02054 1.39648,7.50391 0.84719,1.24169 2.29206,2.2097 4.0625,2.56055 1.77044,0.35085 3.85622,0.20363 6.49219,-0.42969 4.40552,-1.05847 7.41079,-3.74367 9.7793,-8.16797 2.26919,-3.73034 4.04886,-7.56995 5.89062,-11.29297 0.0708,3.45852 0.23373,6.87026 0.20899,9.16602 -0.0211,1.96325 -0.3162,3.93427 0.28125,5.98633 0.29872,1.02603 0.91999,2.08882 1.90429,2.83203 0.9843,0.74321 2.22085,1.14844 3.67383,1.32031 2.81657,0.33316 6.28572,-10e-4 9.33789,-1.27734 1.52609,-0.63797 2.95906,-1.52506 4.06446,-2.79883 1.10539,-1.27377 1.83415,-2.98328 1.83203,-4.88086 -0.003,-2.60164 0.49419,-11.57887 1.16992,-20.12305 0.0935,-1.18204 0.20538,-2.10619 0.30469,-3.25976 0.17227,1.72652 0.36898,3.28682 0.51757,5.02929 0.36062,4.22862 0.66022,8.3973 0.85743,11.75 0.19721,3.35271 0.28066,6.01379 0.24609,6.74414 -0.0956,2.01939 -0.43286,5.88433 0.83008,9.10938 0.63147,1.61253 1.92971,3.25659 3.94336,3.71094 2.01364,0.45435 4.19769,-0.21759 6.74023,-1.79297 2.19292,-1.35875 3.41701,-1.94698 4.57227,-2.62696 2.39801,-1.41146 3.62989,-3.78124 4.11328,-6.30859 0.39393,-2.05963 0.24775,-4.22032 0.1582,-6.24414 1.45847,1.61483 3.22169,3.25954 5.30274,4.79102 4.30625,3.16904 9.84794,5.78054 16,5.80664 7.61779,0.0323 17.86674,-1.99111 24.36132,-6.46094 2.92763,-2.01491 5.84871,-3.96508 8.22071,-6.18359 2.37199,-2.21852 4.27203,-4.80782 4.65039,-8.00977 0.44787,-3.79022 0.27585,-6.5346 -0.53906,-8.64258 -0.81492,-2.10797 -2.54346,-3.52033 -4.35547,-3.85742 -3.62402,-0.67417 -6.8526,1.50955 -8.96289,3.32422 -3.67697,3.16188 -6.31912,5.66159 -13.1211,6.80078 -2.81577,0.47158 -4.44167,-0.66662 -5.36328,-2.9668 -0.92161,-2.30017 -0.76762,-5.94033 1.47461,-9.82226 4.16319,-7.20766 9.95076,-10.8851 14,-13.25196 0.53938,0.74832 1.08193,1.49424 1.67188,2.26563 0.9432,1.23328 2.16383,2.50123 4.01953,3.625 2.08191,1.26076 4.64782,1.76601 7.17383,1.47266 1.3584,-0.15776 2.71419,-0.59484 3.94531,-1.30079 0.17174,0.72859 0.32763,1.61255 0.58008,2.3086 0.59651,1.64475 1.62953,3.19383 3.40039,4.81445 2.52842,2.31393 6.31063,2.46742 10.26953,2.54688 3.9589,0.0794 8.12608,-0.24316 10.83008,-0.33204 2.67319,-0.0879 4.43891,0.13365 5.23242,0.41016 0.35899,0.1251 0.44639,0.21761 0.4668,0.23633 0.0128,0.52631 -0.13968,0.98914 -0.66407,1.62891 -0.53379,0.65123 -1.44937,1.39066 -2.63672,2.11718 -2.3747,1.45305 -5.7785,2.85074 -9.14453,4.2793 -1.87777,0.79693 -4.163,1.54145 -6.07031,1.60742 -2.99378,0.10355 -6.19699,0.80449 -8.39648,3.27149 -2.1995,2.46699 -2.96246,6.33298 -1.98243,11.69336 0.68501,3.74674 1.654,6.40223 3.14258,8.29687 1.48858,1.89464 3.61257,2.84771 5.68946,2.96289 4.15376,0.23036 8.27211,-1.87308 12.92382,-3.13867 5.17082,-1.40683 13.6933,-5.04699 20.98047,-10.58984 7.28717,-5.54286 13.50013,-13.20497 12.61328,-22.49805 -0.82739,-8.67011 -3.88683,-13.12937 -7.6582,-14.98828 -3.77137,-1.85891 -7.71215,-1.16564 -9.63477,-1.19141 -1.71254,-0.023 -3.32396,-0.13593 -4.86523,-0.29297 -1.13569,-0.11571 -2.03583,-0.34516 -2.52539,-0.62109 -0.48956,-0.27593 -0.66131,-0.43717 -0.80274,-1.14063 -0.06,-0.29848 -10e-4,-0.63807 0.47071,-1.26953 0.47183,-0.63145 1.33566,-1.39582 2.37695,-2.10547 2.08257,-1.41928 4.82049,-2.65004 6.49024,-3.35156 1.53459,-0.64474 3.0754,-1.02581 4.52343,-1.46094 1.44804,-0.43512 2.94013,-0.8671 4.0586,-2.24609 1.27645,-1.57379 1.48364,-3.51987 1.24609,-5.10156 -0.23755,-1.58169 -0.85137,-2.93727 -1.38672,-3.95117 -2.2368,-4.23637 -6.91477,-8.02564 -12.91015,-8.05274 z m -0.0176,4 c 4.28292,0.0194 7.77699,2.86575 9.39062,5.92188 0.41768,0.79105 0.83845,1.80816 0.96875,2.67578 0.13031,0.86761 0.0386,1.44747 -0.39844,1.98633 -0.11203,0.13813 -0.81133,0.54979 -2.10156,0.9375 -1.29022,0.3877 -3.03452,0.80861 -4.92187,1.60156 -1.75221,0.73617 -4.67165,2.01776 -7.19336,3.73633 -1.26086,0.85928 -2.43577,1.82138 -3.32813,3.01562 -0.89236,1.19425 -1.5236,2.77935 -1.1875,4.45117 0.34467,1.71441 1.45714,3.10369 2.75977,3.83789 1.30263,0.73421 2.70267,0.97451 4.08398,1.11524 1.62915,0.16598 3.36237,0.28765 5.2168,0.3125 2.62781,0.0352 5.55878,-0.38159 7.91797,0.78125 2.35918,1.16284 4.68911,3.85718 5.44531,11.78125 0.69675,7.30109 -4.30535,13.80132 -11.05273,18.93359 -6.74738,5.13228 -15.07895,8.68005 -19.60742,9.91211 -5.04759,1.3733 -9.25405,3.13897 -11.6543,3.00586 -1.20013,-0.0666 -1.91096,-0.35413 -2.76367,-1.43945 -0.85272,-1.08532 -1.73254,-3.15034 -2.35352,-6.54688 -0.85769,-4.69123 -0.10613,-7.03484 1.03125,-8.31054 1.13738,-1.27571 3.09341,-1.85055 5.55078,-1.93555 2.76989,-0.0958 5.40695,-1.0372 7.4961,-1.92383 3.32512,-1.41119 6.83903,-2.81784 9.66796,-4.54883 1.41447,-0.86549 2.67284,-1.81104 3.64258,-2.99414 0.96974,-1.1831 1.63961,-2.69713 1.58008,-4.33984 -0.0304,-0.83817 -0.35852,-1.75694 -0.95312,-2.43555 -0.59461,-0.6786 -1.36566,-1.10915 -2.20704,-1.40234 -1.68275,-0.5864 -3.77301,-0.7264 -6.67968,-0.63086 -2.87589,0.0945 -6.93786,0.40396 -10.61914,0.33008 -3.68129,-0.0739 -6.95029,-0.85912 -7.64844,-1.49805 -1.45574,-1.33223 -1.94083,-2.12099 -2.3418,-3.22656 -0.40097,-1.10558 -0.65611,-2.67608 -1.25,-5.0586 l -0.77148,-3.09375 2.47461,-2.90234 c 8.27819,-9.71164 19.959,-17.87475 27.16797,-21.03125 1.66837,-0.73051 3.21161,-1.02424 4.63867,-1.01758 z m -95.65625,1.94141 c 0.44671,0.20972 0.86665,0.56534 1.22461,2.15039 0.35795,1.58505 0.46019,4.24772 0.0703,8.15234 -1.60394,16.0632 -2.90401,27.2094 -3.53906,34.85742 l 3.77148,1.08008 c 5.85396,-11.36642 13.38986,-22.94547 21.61328,-30.09179 11.78548,-10.24182 15.88098,-12.19242 23.33594,-13.76758 3.29166,-0.6955 5.98001,-0.0187 8.40039,2.48437 2.42039,2.50311 4.49634,7.0925 5.46875,14.21485 l 0.43945,3.21875 -2.21289,3.13476 c -0.86234,1.22151 -2.27579,1.91798 -3.92382,2.10938 -1.64804,0.19139 -3.44957,-0.19788 -4.63868,-0.91797 -1.41532,-0.85709 -2.14895,-1.63435 -2.91406,-2.63477 -0.76511,-1.00041 -1.53762,-2.27272 -2.78516,-3.76172 l -1.08007,-1.29101 -1.45703,0.8457 c -3.84957,2.23522 -11.71719,6.49196 -16.99024,15.62109 -2.73719,4.73885 -3.21823,9.58468 -1.72461,13.3125 1.49363,3.72783 5.33323,6.15964 9.73828,5.42188 7.63966,-1.27949 11.43281,-4.58634 15.06641,-7.71094 1.54499,-1.32856 4.45262,-2.64388 5.625,-2.42578 0.58619,0.10905 0.91972,0.24002 1.35547,1.36719 0.43575,1.12717 0.70304,3.30977 0.29883,6.73047 -0.22355,1.89183 -1.39404,3.6711 -3.41211,5.55859 -2.01807,1.88749 -4.8066,3.78075 -7.75586,5.81055 -5.25922,3.6196 -15.24695,5.78479 -22.07617,5.75586 -5.01601,-0.0213 -9.82232,-2.21308 -13.64649,-5.02735 -3.82417,-2.81427 -6.64774,-6.33529 -7.55469,-8.21875 l -2.24023,-4.65234 -1.47852,4.94922 c -0.61616,2.06342 -0.4925,4.24859 -0.40234,6.35937 0.0902,2.11078 0.17161,4.14804 -0.084,5.48438 -0.36589,1.91303 -0.83689,2.80222 -2.21484,3.61328 -0.93698,0.5515 -2.33087,1.23664 -4.65039,2.67383 -2.07546,1.28596 -3.2829,1.39685 -3.75195,1.29101 -0.46905,-0.10583 -0.74584,-0.36417 -1.09961,-1.26758 -0.70755,-1.8068 -0.65715,-5.42021 -0.56055,-7.46093 0.0615,-1.2997 -0.0463,-3.77201 -0.24609,-7.16797 -0.19976,-3.39597 -0.50168,-7.59229 -0.86524,-11.85547 -0.72712,-8.52636 -1.59125,-17.02088 -2.64648,-20.67578 l -1.57227,-5.44727 -2.19336,5.23047 c -0.34697,0.82749 -0.47945,1.64444 -0.67773,2.84375 -0.19828,1.19931 -0.39639,2.68288 -0.5918,4.37891 -0.39081,3.39205 -0.77494,7.62297 -1.11523,11.92578 -0.68059,8.60562 -1.1849,17.36201 -1.18164,20.44336 0.001,0.94391 -0.28441,1.59811 -0.85352,2.25391 -0.56911,0.65579 -1.47134,1.26451 -2.58594,1.73046 -2.22919,0.93191 -5.26378,1.23982 -7.32421,0.9961 -0.98552,-0.11658 -1.48653,-0.35388 -1.73438,-0.54102 -0.24785,-0.18714 -0.35345,-0.34166 -0.47461,-0.75781 -0.24232,-0.8323 -0.14661,-2.63815 -0.12305,-4.82617 0.0451,-4.18458 0.0523,-12.59251 -0.39453,-16.89649 l -0.55859,-5.38672 -3.07617,4.45704 c -4.0839,5.91673 -6.22191,12.49781 -9.51563,17.89257 l -0.0312,0.0488 -0.0273,0.0527 c -2.08578,3.91157 -3.72843,5.35907 -7.20899,6.19531 -2.28836,0.5498 -3.84825,0.57903 -4.77929,0.39453 -0.93104,-0.1845 -1.24247,-0.46359 -1.53516,-0.89258 -0.58538,-0.85797 -0.70066,-3.00241 -0.70117,-5.25 -0.002,-5.50167 0.10638,-8.38094 -0.008,-10.59961 -0.1142,-2.21866 -0.52897,-3.80963 -1.4043,-5.97265 l -1.69922,-4.19532 -1.95898,4.08203 c -3.57123,7.44215 -7.87687,22.82564 -9.59766,31.20118 -0.39178,1.90692 -0.86971,3.10681 -1.27148,3.75195 -0.40177,0.64514 -0.62478,0.74204 -0.87305,0.82031 -0.49655,0.15654 -1.82278,-0.20749 -3.73633,-0.49023 -2.99386,-0.44236 -6.08594,-1.35352 -6.08594,-1.35352 l -0.008,-0.002 -0.006,-0.002 c 0,0 -0.45783,-0.16202 -1.12305,-0.13672 -0.3326,0.0126 -0.78132,0.0564 -1.31445,0.37695 -0.53312,0.32054 -1.04315,1.0437 -1.15234,1.71094 -0.49539,3.02716 -3.46841,8.34607 -8.18945,12.74804 -4.72105,4.40195 -11.09655,7.99985 -18.279302,8.56445 -7.648728,0.6012 -11.628812,0.3304 -14.794922,-0.9199 -3.166109,-1.2504 -5.895503,-3.6768 -10.742187,-7.82228 l -3.734375,-3.19336 0.443359,4.89454 c 0.188589,2.0829 0.223344,3.5184 0.107422,4.4277 -0.115922,0.9093 -0.284692,1.2414 -0.667969,1.6738 -0.766554,0.8648 -3.149846,2.0215 -7.375,4.5801 -3.661539,2.2173 -11.330853,4.6208 -19.185547,5.2285 -7.854693,0.6078 -15.875093,-0.5757 -20.769531,-4.541 -5.47556,-4.4361 -11.9322886,-9.9599 -13.5351561,-22.37887 -1.5772392,-12.22047 4.5677627,-26.40702 10.7207031,-35.00782 13.596007,-19.00497 23.760806,-24.86942 31.941406,-29.86132 3.945561,-2.40763 7.647891,-3.94104 10.189453,-3.99414 1.270782,-0.0266 2.210353,0.24274 3.03711,0.86132 0.826757,0.61859 1.608714,1.66895 2.222656,3.48047 1.449362,4.27656 3.810893,10.1933 4.582031,15.72266 0.771138,5.52935 0.108427,10.21745 -4.191406,13.23828 -2.348766,1.65011 -4.077759,2.27847 -5.232422,2.38672 -1.154662,0.10825 -1.805253,-0.16746 -2.539062,-0.76953 -1.467619,-1.20414 -2.689107,-4.12222 -4.220703,-6.62891 l -1.046876,-1.7168 -1.710937,1.0586 c -3.18414,1.96962 -7.169647,6.14781 -11.074219,10.87109 -3.904572,4.72329 -7.555629,9.87924 -9.472656,13.82031 -2.041559,4.1971 -2.344736,9.44566 -0.925781,13.91211 0.709477,2.23323 1.876272,4.29179 3.61914,5.82032 1.742869,1.52852 4.09036,2.46003 6.746094,2.4082 9.097485,-0.17756 19.275565,-2.59873 28.412109,-8.25391 l 0.66211,-0.41015 0.210937,-0.74805 c 2.533393,-9.01354 4.115808,-24.17013 10.91211,-33.67383 3.454721,-4.83095 8.597297,-9.54767 14.074219,-12.87109 5.476921,-3.32342 11.280242,-5.20452 15.898432,-4.78906 5.04525,0.45387 8.57644,1.63096 11.34766,3.82226 2.77122,2.19131 4.91334,5.52335 6.80274,10.66602 l 2.22656,6.05664 1.58984,-6.25391 c 2.94186,-11.57258 8.04688,-24.64062 8.04688,-24.64062 l 0.0586,-0.14844 0.0332,-0.15625 c 0,0 0.69079,-3.10901 2.32618,-6.16797 1.63538,-3.05896 3.94278,-5.66089 7.1582,-5.69336 4.04474,-0.0408 5.7586,0.6221 6.48633,1.21484 0.70213,0.57191 0.95319,1.43254 1.44531,2.9336 1.05613,5.38113 1.76436,15.4121 4.23828,23.37695 l 1.28906,4.15235 2.31446,-3.68165 c 4.13478,-6.5799 7.391,-14.55427 9.08203,-18.1914 l 0.008,-0.0176 0.01,-0.0195 c 1.21393,-2.75481 2.17422,-5.20477 3.66992,-6.93945 1.4957,-1.73469 3.47629,-2.97277 7.51562,-3.36524 4.83656,-0.46993 7.79181,-0.0575 9.52539,1.70313 1.23208,1.25125 2.40438,4.42723 3.375,8.09375 l 3.92774,-0.35938 c 0.2619,-3.38686 1.40557,-5.01172 1.53711,-8.46875 0.0957,-2.51479 1.46892,-4.64898 3.52539,-6.41601 2.05647,-1.76704 4.75986,-3.04641 6.90039,-3.62891 1.80809,-0.49204 3.47111,-1.02684 4.80859,-1.29297 1.33748,-0.26613 2.25056,-0.21167 2.69727,-0.002 z m -115.20899,50.59375 c -3.23191,0.15195 -6.488584,2.1769 -9.578122,4.7539 -3.089538,2.57701 -5.869978,5.75791 -7.238281,8.99805 l -0.02539,0.0625 -0.02148,0.0625 c -1.428947,4.13447 -2.751924,8.60466 -2.708984,12.61914 0.02147,2.00724 0.392443,3.9583 1.472656,5.61133 1.080213,1.65303 2.897814,2.85929 5.154297,3.32617 4.538231,0.939 8.921603,-1.16958 12.298824,-4.24805 3.37722,-3.07846 5.91986,-7.19818 6.88672,-11.24023 l 0.004,-0.0137 0.004,-0.0137 c 0.73264,-3.26678 1.10278,-7.16969 0.76953,-10.71094 -0.33325,-3.54125 -1.26307,-7.01391 -4.24219,-8.63086 -0.88374,-0.47962 -1.8522,-0.6196 -2.77539,-0.57617 z m 0.18946,3.99414 c 0.39048,-0.0184 0.59323,0.0518 0.67773,0.0977 0.8939,0.48518 1.88821,2.51744 2.16797,5.49024 0.27935,2.96847 -0.0481,6.57945 -0.68945,9.44531 -0.73189,3.04409 -2.91737,6.67805 -5.6875,9.20313 -2.774082,2.52867 -5.960174,3.87324 -8.792972,3.28711 -1.429033,-0.29568 -2.109681,-0.82402 -2.615235,-1.59766 -0.505553,-0.77364 -0.805969,-1.94124 -0.822265,-3.46484 -0.03233,-3.0228 1.096729,-7.2195 2.458984,-11.17579 0.952785,-2.23447 3.391241,-5.19568 6.097656,-7.45312 2.716883,-2.26617 5.839132,-3.76781 7.205082,-3.83203 z"
         id="path4138"
         inkscape:connector-curvature="0" />
      <path
         inkscape:connector-curvature="0"
         id="path4204"
         d="m 314.68858,897.51864 c -1.71305,-0.008 -3.54301,0.3509 -5.44922,1.18555 -7.62483,3.33859 -19.37346,11.5767 -27.88867,21.5664 -2.01521,-14.7603 -8.59929,-20.00417 -16.26368,-18.38476 -7.66439,1.61941 -12.36176,3.8973 -24.23437,14.21484 -8.56799,7.44576 -16.16133,19.19334 -22.08008,30.68555 0.62966,-7.58309 1.92971,-18.74587 3.53516,-34.82422 1.60545,-16.07835 -4.32649,-13.03836 -11.31446,-11.13672 -4.85348,1.32078 -11.65653,5.49149 -11.90039,11.90039 -0.11342,2.98078 -1.24394,4.64999 -1.5332,8.39063 -0.98555,-3.72292 -2.06364,-7.1369 -3.88281,-8.98438 -2.39484,-2.43213 -6.12237,-2.77898 -11.14453,-2.29101 -8.83708,0.85863 -10.453,6.11358 -12.82227,11.49023 -1.74427,3.75165 -4.96534,11.60919 -8.96289,17.9707 -2.37255,-7.63849 -3.0802,-17.62917 -4.20117,-23.27539 -0.99597,-3.02122 -1.3824,-5.74221 -9.89844,-5.65625 -8.51604,0.086 -11.41797,13.43555 -11.41797,13.43555 0,0 -5.13397,13.11865 -8.12304,24.87695 -3.92473,-10.68256 -9.30035,-14.84004 -19.84961,-15.78906 -10.549255,-0.94902 -24.498455,8.30975 -31.777345,18.48828 -7.27889,10.17853 -8.78793,25.67414 -11.21093,34.29492 -8.78697,5.4388 -18.630039,7.78391 -27.400396,7.95508 -8.770357,0.17118 -11.148742,-11.97519 -7.601562,-19.26758 3.54718,-7.29239 14.42746,-20.54145 19.800778,-23.86523 2.72166,4.4544 4.75286,12.69752 14.84766,5.60547 10.0948,-7.09205 3.18055,-22.89671 0.35352,-31.23828 -2.82703,-8.34157 -10.2326,-6.38862 -18.384771,-1.41407 -8.152164,4.97455 -18.764527,11.17083 -32.52539,30.40625 -6.3812052,8.91987 -12.76151425,23.38482 -11.0781252,36.42774 1.683389,13.04288 8.7339472,19.19898 14.2597652,23.67578 11.089322,8.9842 33.982711,4.4751 42.250001,-0.5312 8.26729,-5.0064 9.66326,-4.0386 8.89062,-12.5723 9.65718,8.2601 11.4991,10.4328 26.99414,9.2148 15.495035,-1.2179 27.040025,-15.37373 28.285155,-22.98239 0.10315,-0.6303 1.06055,-0.35352 1.06055,-0.35352 0,0 3.17743,0.94333 6.36328,1.41406 3.18585,0.47073 6.44786,2.53535 8.13086,-5.65625 1.683,-8.1916 6.07663,-23.72423 9.44336,-30.74023 1.6816,4.15539 1.26189,4.76826 1.26562,15.82226 0.001,4.38368 -0.36431,10.05766 9.48438,7.69141 3.94958,-0.94893 6.2771,-3.01951 8.50586,-7.19922 3.45969,-5.6666 5.58904,-12.19772 9.45508,-17.79883 0.41737,4.02002 0.4295,12.51669 0.38476,16.66797 -0.0447,4.15128 -0.7813,7.55593 4.0957,8.13281 4.877,0.57688 13.00442,-1.28576 12.99805,-6.96875 -0.006,-5.68299 2.00718,-35.46578 3.41211,-38.8164 1.76209,6.10316 3.87383,34.98872 3.68164,39.04883 -0.19219,4.06011 -0.77311,14.95511 8.46289,9.23242 2.25622,-1.39797 3.56521,-2.03465 4.61133,-2.65039 1.88798,-1.11126 2.73942,-2.74075 3.16406,-4.96094 0.65993,-3.45038 -0.49379,-8.52315 0.43946,-11.64844 2.2985,4.77327 11.82608,14.32958 22.99414,14.37695 7.22351,0.0306 17.34185,-2.0627 23.21875,-6.10742 5.87689,-4.04471 11.41762,-7.68747 12.01953,-12.78125 1.70417,-14.42182 -6.91308,-10.56706 -10.56836,-7.42383 -3.65528,3.14324 -6.87293,6.04652 -14.09375,7.25586 -7.22082,1.20934 -10.93059,-7.14093 -5.95117,-15.76171 4.97942,-8.62078 12.35231,-12.62148 16.26367,-14.89258 2.28636,2.7289 2.92429,4.8414 6.19531,6.82226 3.27102,1.98086 8.73474,1.78991 11.23242,-1.74804 1.14676,4.6005 0.95505,6.32449 4.18164,9.27734 3.22658,2.95286 14.10372,1.87481 19.6836,1.69141 5.57987,-0.1834 7.70952,0.72527 7.77539,2.54296 0.15805,4.36165 -6.98268,7.12901 -13.67383,9.96876 -1.98346,0.84178 -4.4446,1.68473 -6.7832,1.76562 -5.45115,0.18855 -10.31819,2.55387 -8.48047,12.60547 2.61199,14.28656 9.56438,9.18967 19.26367,6.55078 9.69929,-2.63889 33.71054,-14.37262 32.12695,-30.9668 -1.58359,-16.59418 -10.7777,-14.31009 -15.32812,-14.37109 -1.78349,-0.0239 -3.45581,-0.14123 -5.04102,-0.30274 -2.51701,-0.25644 -4.59985,-0.93956 -5.08594,-3.35742 -0.79223,-3.94061 7.10149,-7.52715 10.52344,-8.96484 3.42195,-1.43769 6.57224,-1.60593 7.80274,-3.12305 1.71351,-2.11265 0.59755,-5.05246 -0.35547,-6.85742 -1.92522,-3.64625 -6.01124,-6.96505 -11.15039,-6.98828 z m -210.7793,56.5332 c 0.65684,-0.0309 1.24244,0.0732 1.72656,0.33594 3.87301,2.10213 3.85043,11.01185 2.47461,17.14648 -1.69563,7.08879 -9.464905,15.52123 -16.835935,13.9961 -7.37103,-1.52512 -5.23957,-10.82658 -2.43359,-18.94531 2.31316,-5.47757 10.47049,-12.31704 15.068355,-12.53321 z"
         style="fill:#ffff00;fill-opacity:1;fill-rule:evenodd;stroke:none;stroke-width:0.40000001;stroke-linecap:butt;stroke-linejoin:miter;stroke-miterlimit:4;stroke-dasharray:none;stroke-opacity:1" />
    </g>
  </g>
</svg>
