<svg aria-hidden="true" style="position: absolute; width: 0; height: 0; overflow: hidden;" version="1.1" xmlns="http://www.w3.org/2000/svg" xmlns:xlink="http://www.w3.org/1999/xlink">
<defs>
<symbol id="icon-mail" viewBox="0 0 32 32">
<path d="M7 5.333h18c2.311 0 4.199 1.809 4.327 4.087l0.007 0.246v12.667c0 2.311-1.809 4.199-4.087 4.327l-0.246 0.007h-18c-2.311 0-4.199-1.809-4.326-4.087l-0.007-0.246v-12.667c0-2.311 1.809-4.199 4.087-4.326l0.246-0.007zM27.333 12.497l-10.868 5.721c-0.25 0.131-0.542 0.15-0.803 0.056l-0.128-0.056-10.868-5.72v9.835c0 1.224 0.943 2.228 2.142 2.326l0.191 0.008h18c1.224 0 2.228-0.943 2.326-2.142l0.008-0.191v-9.836zM25 7.333h-18c-1.224 0-2.228 0.943-2.326 2.142l-0.008 0.191v0.572l11.333 5.965 11.333-5.966v-0.571c0-1.224-0.943-2.228-2.142-2.326l-0.191-0.008z"></path>
</symbol>
<symbol id="icon-phone" viewBox="0 0 32 32">
<path d="M22 27.999c-9.925 0-18-8.075-18-18 0.004-1.702 0.626-3.346 1.75-4.624s2.675-2.105 4.363-2.326c0.43-0.048 0.865 0.043 1.24 0.259s0.672 0.546 0.848 0.941l2.513 5.863c0.13 0.304 0.183 0.636 0.152 0.966s-0.143 0.646-0.327 0.922l-2.075 3.175c0.94 1.907 2.488 3.446 4.4 4.375l3.137-2.088c0.275-0.185 0.592-0.297 0.923-0.326s0.662 0.028 0.965 0.163l5.863 2.5c0.396 0.175 0.726 0.472 0.941 0.847s0.306 0.81 0.259 1.24c-0.221 1.688-1.048 3.238-2.326 4.363s-2.921 1.746-4.624 1.75zM10.363 5.036c-1.206 0.155-2.315 0.745-3.118 1.658s-1.246 2.088-1.245 3.305c0.003 4.242 1.69 8.31 4.69 11.31s7.068 4.687 11.31 4.69c1.216 0.001 2.391-0.442 3.305-1.245s1.503-1.911 1.658-3.118l-5.863-2.5-3.125 2.087c-0.287 0.19-0.619 0.303-0.963 0.327s-0.688-0.041-0.999-0.189c-2.329-1.127-4.213-3.001-5.35-5.325-0.15-0.31-0.217-0.654-0.195-0.998s0.132-0.676 0.32-0.965l2.088-3.175-2.513-5.862z"></path>
</symbol>
<symbol id="icon-location" viewBox="0 0 28 32">
<path d="M5.101 4.99c5.038-5.038 13.205-5.038 18.243 0s5.038 13.205 0 18.243l-1.758 1.739c-1.296 1.272-2.978 2.908-5.046 4.907-1.292 1.249-3.342 1.249-4.634-0l-5.172-5.031c-0.65-0.638-1.194-1.176-1.632-1.615-5.038-5.038-5.038-13.205 0-18.243zM21.773 6.561c-4.17-4.17-10.93-4.17-15.1 0s-4.17 10.93 0 15.1l2.203 2.174c1.213 1.187 2.738 2.669 4.575 4.445 0.431 0.417 1.114 0.417 1.545 0l5.030-4.891c0.695-0.682 1.277-1.258 1.748-1.729 4.17-4.17 4.17-10.931 0-15.1zM14.223 10.072c2.456 0 4.447 1.991 4.447 4.447s-1.991 4.447-4.447 4.447c-2.456 0-4.447-1.991-4.447-4.447s1.991-4.447 4.447-4.447zM14.223 12.295c-1.229 0-2.224 0.996-2.224 2.225s0.996 2.224 2.224 2.224c1.229 0 2.225-0.996 2.225-2.224s-0.996-2.225-2.225-2.225z"></path>
</symbol>
<symbol id="icon-close-one" viewBox="0 0 32 32">
<path d="M26.667 7.303l-1.97-1.97-7.808 7.808-7.808-7.808-1.97 1.97 7.808 7.808-7.808 7.808 1.97 1.97 7.808-7.808 7.808 7.808 1.97-1.97-7.808-7.808 7.808-7.808z"></path>
</symbol>
<symbol id="icon-close-two" viewBox="0 0 32 32">
<path d="M32 3.223l-3.223-3.223-12.777 12.777-12.777-12.777-3.223 3.223 12.777 12.777-12.777 12.777 3.223 3.223 12.777-12.777 12.777 12.777 3.223-3.223-12.777-12.777 12.777-12.777z"></path>
</symbol>
<symbol id="icon-close-three" viewBox="0 0 32 32">
<path d="M32 3.223l-3.223-3.223-12.777 12.777-12.777-12.777-3.223 3.223 12.777 12.777-12.777 12.777 3.223 3.223 12.777-12.777 12.777 12.777 3.223-3.223-12.777-12.777 12.777-12.777z"></path>
</symbol>
<symbol id="icon-close-four" viewBox="0 0 32 32">
<path d="M32 16c0 8.837-7.163 16-16 16s-16-7.163-16-16c0-8.837 7.163-16 16-16s16 7.163 16 16z"></path>
<path d="M22.4 10.782l-1.182-1.182-4.685 4.685-4.685-4.685-1.182 1.182 4.685 4.685-4.685 4.685 1.182 1.182 4.685-4.685 4.685 4.685 1.182-1.182-4.685-4.685 4.685-4.685z"></path>
</symbol>
<symbol id="icon-close-five" viewBox="0 0 32 32">
<path d="M32 3.223l-3.223-3.223-12.777 12.777-12.777-12.777-3.223 3.223 12.777 12.777-12.777 12.777 3.223 3.223 12.777-12.777 12.777 12.777 3.223-3.223-12.777-12.777 12.777-12.777z"></path>
</symbol>


<symbol id="icon-github" viewBox="0 0 32 32">
<path d="M16 0c-8.788 0-16 7.212-16 16 0 7.499 5.262 14.312 12.25 16v-5.293c-0.692 0.152-1.33 0.156-2.034-0.052-0.946-0.279-1.714-0.909-2.284-1.869-0.364-0.613-1.008-1.278-1.68-1.23l-0.165-1.868c1.453-0.124 2.711 0.886 3.457 2.14 0.332 0.558 0.713 0.884 1.203 1.029 0.473 0.14 0.982 0.072 1.574-0.137 0.149-1.186 0.692-1.63 1.102-2.255v-0.001c-4.167-0.622-5.828-2.832-6.488-4.578-0.874-2.317-0.405-5.212 1.14-7.041 0.030-0.036 0.084-0.129 0.063-0.194-0.708-2.139 0.155-3.909 0.187-4.097 0.817 0.242 0.95-0.243 3.551 1.337l0.449 0.27c0.188 0.112 0.129 0.048 0.317 0.034 1.086-0.295 2.23-0.458 3.358-0.472 1.136 0.015 2.273 0.178 3.404 0.484l0.145 0.015c-0.013-0.002 0.040-0.009 0.127-0.062 3.248-1.968 3.132-1.324 4.003-1.608 0.032 0.188 0.883 1.987 0.182 4.099-0.095 0.291 2.816 2.956 1.203 7.235-0.659 1.746-2.32 3.957-6.487 4.578v0.001c0.534 0.814 1.176 1.247 1.173 2.927v6.608c6.988-1.688 12.25-8.501 12.25-16 0-8.788-7.212-16-16-16v0z"></path>
</symbol>
<symbol id="icon-linkedin" viewBox="0 0 32 32">
<path d="M31.992 32v-0.001h0.008v-11.736c0-5.741-1.236-10.164-7.948-10.164-3.227 0-5.392 1.771-6.276 3.449h-0.093v-2.913h-6.364v21.364h6.627v-10.579c0-2.785 0.528-5.479 3.977-5.479 3.399 0 3.449 3.179 3.449 5.657v10.401h6.62z"></path>
<path d="M0.528 10.636h6.635v21.364h-6.635v-21.364z"></path>
<path d="M3.843 0c-2.121 0-3.843 1.721-3.843 3.843s1.721 3.879 3.843 3.879c2.121 0 3.843-1.757 3.843-3.879-0.001-2.121-1.723-3.843-3.843-3.843v0z"></path>
</symbol>

<symbol id="icon-pictures" viewBox="0 0 33 32">
<path d="M26.604 29.587l-2.624-0.72-0.006-7.258 2.51 0.706 3.619-13.509-18.332-4.912-1.208 4.506h-2.068l1.863-6.952 22.193 5.946-5.947 22.193zM23.039 32h-23.039v-22.977h23.039v22.977zM21.041 11.021h-19.043v13.985h19.043v-13.985zM7.849 20.993l2.283-3.692 2.283 2.301 3.139-4.727 3.283 8.134h-14.556l1.855-3.71 1.713 1.694zM6.484 17.086c-0.828 0-1.499-0.67-1.499-1.498s0.671-1.498 1.499-1.498 1.498 0.67 1.498 1.498-0.67 1.498-1.498 1.498z"></path>
</symbol>

<symbol id="icon-magnifier" viewBox="0 0 32 32">
<path d="M29.156 29.961l-0.709 0.709c-0.785 0.784-2.055 0.784-2.838 0l-5.676-5.674c-0.656-0.658-0.729-1.644-0.281-2.412l-3.104-3.102c-1.669 1.238-3.728 1.979-5.965 1.979-5.54 0-10.031-4.491-10.031-10.031s4.491-10.032 10.031-10.032c5.541 0 10.031 4.491 10.031 10.032 0 2.579-0.98 4.923-2.58 6.7l3.035 3.035c0.768-0.447 1.754-0.375 2.41 0.283l5.676 5.674c0.784 0.785 0.784 2.056 0.001 2.839zM18.088 11.389c0-4.155-3.369-7.523-7.524-7.523s-7.524 3.367-7.524 7.523 3.368 7.523 7.523 7.523 7.525-3.368 7.525-7.523z"></path>
</symbol>
<symbol id="icon-mail" viewBox="0 0 32 32">
<path d="M7 5.333h18c2.311 0 4.199 1.809 4.327 4.087l0.007 0.246v12.667c0 2.311-1.809 4.199-4.087 4.327l-0.246 0.007h-18c-2.311 0-4.199-1.809-4.326-4.087l-0.007-0.246v-12.667c0-2.311 1.809-4.199 4.087-4.326l0.246-0.007zM27.333 12.497l-10.868 5.721c-0.25 0.131-0.542 0.15-0.803 0.056l-0.128-0.056-10.868-5.72v9.835c0 1.224 0.943 2.228 2.142 2.326l0.191 0.008h18c1.224 0 2.228-0.943 2.326-2.142l0.008-0.191v-9.836zM25 7.333h-18c-1.224 0-2.228 0.943-2.326 2.142l-0.008 0.191v0.572l11.333 5.965 11.333-5.966v-0.571c0-1.224-0.943-2.228-2.142-2.326l-0.191-0.008z"></path>
</symbol>
<symbol id="icon-phone" viewBox="0 0 32 32">
<path d="M22 27.999c-9.925 0-18-8.075-18-18 0.004-1.702 0.626-3.346 1.75-4.624s2.675-2.105 4.363-2.326c0.43-0.048 0.865 0.043 1.24 0.259s0.672 0.546 0.848 0.941l2.513 5.863c0.13 0.304 0.183 0.636 0.152 0.966s-0.143 0.646-0.327 0.922l-2.075 3.175c0.94 1.907 2.488 3.446 4.4 4.375l3.137-2.088c0.275-0.185 0.592-0.297 0.923-0.326s0.662 0.028 0.965 0.163l5.863 2.5c0.396 0.175 0.726 0.472 0.941 0.847s0.306 0.81 0.259 1.24c-0.221 1.688-1.048 3.238-2.326 4.363s-2.921 1.746-4.624 1.75zM10.363 5.036c-1.206 0.155-2.315 0.745-3.118 1.658s-1.246 2.088-1.245 3.305c0.003 4.242 1.69 8.31 4.69 11.31s7.068 4.687 11.31 4.69c1.216 0.001 2.391-0.442 3.305-1.245s1.503-1.911 1.658-3.118l-5.863-2.5-3.125 2.087c-0.287 0.19-0.619 0.303-0.963 0.327s-0.688-0.041-0.999-0.189c-2.329-1.127-4.213-3.001-5.35-5.325-0.15-0.31-0.217-0.654-0.195-0.998s0.132-0.676 0.32-0.965l2.088-3.175-2.513-5.862z"></path>
</symbol>
<symbol id="icon-location" viewBox="0 0 28 32">
<path d="M5.101 4.99c5.038-5.038 13.205-5.038 18.243 0s5.038 13.205 0 18.243l-1.758 1.739c-1.296 1.272-2.978 2.908-5.046 4.907-1.292 1.249-3.342 1.249-4.634-0l-5.172-5.031c-0.65-0.638-1.194-1.176-1.632-1.615-5.038-5.038-5.038-13.205 0-18.243zM21.773 6.561c-4.17-4.17-10.93-4.17-15.1 0s-4.17 10.93 0 15.1l2.203 2.174c1.213 1.187 2.738 2.669 4.575 4.445 0.431 0.417 1.114 0.417 1.545 0l5.030-4.891c0.695-0.682 1.277-1.258 1.748-1.729 4.17-4.17 4.17-10.931 0-15.1zM14.223 10.072c2.456 0 4.447 1.991 4.447 4.447s-1.991 4.447-4.447 4.447c-2.456 0-4.447-1.991-4.447-4.447s1.991-4.447 4.447-4.447zM14.223 12.295c-1.229 0-2.224 0.996-2.224 2.225s0.996 2.224 2.224 2.224c1.229 0 2.225-0.996 2.225-2.224s-0.996-2.225-2.225-2.225z"></path>
</symbol>
<symbol id="icon-params" viewBox="0 0 32 32">
<path d="M8 6.021v-3.021c0-1.654-1.346-3-3-3s-3 1.346-3 3v3.021c-1.208 0.915-2 2.348-2 3.979s0.792 3.064 2 3.977v15.023c0 1.654 1.346 3 3 3s3-1.346 3-3v-15.023c1.208-0.912 2-2.346 2-3.977s-0.792-3.064-2-3.979zM4 3c0-0.553 0.447-1 1-1s1 0.447 1 1v2.1c-0.323-0.065-0.657-0.1-1-0.1s-0.677 0.035-1 0.1v-2.1zM6 29c0 0.553-0.447 1-1 1s-1-0.447-1-1v-14.102c0.323 0.067 0.657 0.102 1 0.102s0.677-0.035 1-0.102v14.102zM7.865 10.84c-0.016 0.053-0.030 0.105-0.049 0.158-0.095 0.264-0.217 0.514-0.378 0.736-0.004 0.006-0.010 0.010-0.014 0.016-0.174 0.238-0.381 0.449-0.616 0.627-0.004 0.004-0.007 0.006-0.010 0.008-0.241 0.182-0.51 0.328-0.799 0.43-0.313 0.113-0.646 0.185-0.999 0.185s-0.686-0.072-1-0.186c-0.289-0.102-0.558-0.248-0.799-0.43-0.003-0.002-0.006-0.004-0.010-0.008-0.235-0.178-0.442-0.389-0.616-0.627-0.004-0.006-0.010-0.010-0.014-0.016-0.161-0.223-0.283-0.473-0.378-0.736-0.019-0.053-0.033-0.105-0.049-0.158-0.079-0.267-0.134-0.546-0.134-0.839 0-0.295 0.055-0.574 0.135-0.842 0.016-0.053 0.030-0.105 0.049-0.156 0.094-0.264 0.216-0.514 0.378-0.738 0.004-0.006 0.010-0.010 0.014-0.016 0.174-0.236 0.381-0.449 0.616-0.627 0.004-0.002 0.007-0.006 0.010-0.008 0.24-0.179 0.509-0.326 0.798-0.429 0.314-0.112 0.647-0.184 1-0.184s0.686 0.072 1 0.184c0.289 0.104 0.558 0.25 0.799 0.43 0.003 0.002 0.006 0.006 0.010 0.008 0.235 0.178 0.442 0.391 0.616 0.627 0.004 0.006 0.010 0.010 0.014 0.016 0.161 0.223 0.283 0.473 0.377 0.737 0.019 0.051 0.034 0.103 0.049 0.156 0.080 0.268 0.135 0.547 0.135 0.842 0 0.293-0.055 0.572-0.135 0.84zM30 6.021v-3.021c0-1.654-1.346-3-3-3s-3 1.346-3 3v3.021c-1.209 0.915-2 2.348-2 3.979s0.791 3.064 2 3.977v15.023c0 1.654 1.346 3 3 3s3-1.346 3-3v-15.023c1.207-0.912 2-2.346 2-3.977s-0.793-3.064-2-3.979zM26 3c0-0.553 0.447-1 1-1s1 0.447 1 1v2.1c-0.324-0.065-0.658-0.1-1-0.1-0.344 0-0.678 0.035-1 0.1v-2.1zM28 29c0 0.553-0.447 1-1 1s-1-0.447-1-1v-14.102c0.322 0.067 0.656 0.102 1 0.102 0.342 0 0.676-0.035 1-0.102v14.102zM29.865 10.84c-0.016 0.053-0.031 0.105-0.049 0.158-0.096 0.264-0.217 0.514-0.379 0.736-0.004 0.006-0.010 0.010-0.014 0.016-0.174 0.238-0.381 0.449-0.615 0.627-0.004 0.004-0.008 0.006-0.010 0.008-0.242 0.182-0.51 0.328-0.799 0.43-0.313 0.113-0.647 0.185-0.999 0.185-0.354 0-0.686-0.072-1-0.186-0.289-0.102-0.559-0.248-0.799-0.43-0.004-0.002-0.006-0.004-0.010-0.008-0.236-0.178-0.443-0.389-0.617-0.627-0.004-0.006-0.010-0.010-0.014-0.016-0.16-0.223-0.283-0.473-0.377-0.736-0.020-0.053-0.033-0.105-0.049-0.158-0.079-0.267-0.134-0.546-0.134-0.839 0-0.295 0.055-0.574 0.135-0.842 0.016-0.053 0.029-0.105 0.049-0.156 0.094-0.264 0.217-0.514 0.377-0.738 0.004-0.006 0.010-0.010 0.014-0.016 0.174-0.236 0.381-0.449 0.617-0.627 0.004-0.002 0.006-0.006 0.010-0.008 0.24-0.18 0.51-0.326 0.799-0.43 0.313-0.111 0.645-0.183 0.999-0.183 0.352 0 0.686 0.072 1 0.184 0.289 0.104 0.557 0.25 0.799 0.43 0.002 0.002 0.006 0.006 0.010 0.008 0.234 0.178 0.441 0.391 0.615 0.627 0.004 0.006 0.010 0.010 0.014 0.016 0.162 0.225 0.283 0.475 0.379 0.738 0.018 0.051 0.033 0.104 0.049 0.156 0.079 0.267 0.134 0.546 0.134 0.841 0 0.293-0.055 0.572-0.135 0.84zM19 18.021v-15.021c0-1.654-1.346-3-3-3s-3 1.346-3 3v15.021c-1.208 0.914-2 2.348-2 3.979s0.792 3.064 2 3.977v3.023c0 1.654 1.346 3 3 3s3-1.346 3-3v-3.023c1.207-0.912 2-2.346 2-3.977s-0.793-3.064-2-3.979zM15 3c0-0.553 0.447-1 1-1s1 0.447 1 1v14.1c-0.324-0.064-0.658-0.1-1-0.1-0.343 0-0.677 0.035-1 0.1v-14.1zM17 29c0 0.553-0.447 1-1 1s-1-0.447-1-1v-2.102c0.323 0.067 0.657 0.102 1 0.102 0.342 0 0.676-0.035 1-0.102v2.102zM18.865 22.84c-0.016 0.053-0.031 0.105-0.049 0.158-0.096 0.264-0.217 0.514-0.379 0.736-0.004 0.006-0.010 0.010-0.014 0.016-0.174 0.238-0.381 0.449-0.615 0.627-0.004 0.004-0.008 0.006-0.010 0.008-0.242 0.182-0.51 0.328-0.799 0.43-0.313 0.113-0.647 0.185-0.999 0.185s-0.686-0.072-1-0.186c-0.289-0.102-0.558-0.248-0.799-0.43-0.003-0.002-0.006-0.004-0.010-0.008-0.235-0.178-0.442-0.389-0.616-0.627-0.004-0.006-0.010-0.010-0.014-0.016-0.161-0.223-0.283-0.473-0.378-0.736-0.019-0.053-0.033-0.105-0.049-0.158-0.079-0.267-0.134-0.546-0.134-0.839 0-0.295 0.055-0.574 0.135-0.842 0.016-0.053 0.030-0.105 0.049-0.156 0.095-0.264 0.217-0.514 0.378-0.738 0.004-0.006 0.010-0.010 0.014-0.016 0.174-0.236 0.381-0.449 0.616-0.627 0.004-0.002 0.007-0.006 0.010-0.008 0.241-0.18 0.51-0.326 0.799-0.43 0.313-0.111 0.646-0.183 0.999-0.183 0.352 0 0.686 0.072 1 0.184 0.289 0.104 0.557 0.25 0.799 0.43 0.002 0.002 0.006 0.006 0.010 0.008 0.234 0.178 0.441 0.391 0.615 0.627 0.004 0.006 0.010 0.010 0.014 0.016 0.162 0.225 0.283 0.475 0.379 0.738 0.018 0.051 0.033 0.104 0.049 0.156 0.079 0.267 0.134 0.546 0.134 0.841 0 0.293-0.055 0.572-0.135 0.84z"></path>
</symbol>
<symbol id="icon-marvel" viewBox="0 0 44 32">
<path fill="#000" style="fill: var(--color1, #000)" d="M1.193 0v32h17.916v-6.049l2.688 6.039 2.688-6.039v6.050h17.916v-23.003h-2.399v-8.997h-3.185v11.767h-0.492v-2.769h-2.715v-1.773h2.715v-2.759h-2.715v-1.773h2.715v-2.692h-8.083l-0.789 6.032-0.533-6.032h-2.861l1.609 11.767h-0.929c-0.009-0.001-0.128-0.013-0.284-0.183-0.163-0.177-0.351-0.534-0.302-1.309l0.001-0.008v-2.063c0-0.323-0.017-0.773-0.208-1.221-0.147-0.344-0.409-0.681-0.82-0.939 0.36-0.296 0.601-0.673 0.748-1.075 0.194-0.532 0.238-1.108 0.232-1.649-0.010-0.939-0.138-1.762-0.602-2.372s-1.251-0.947-2.413-0.947h-3.361v10.851l-2.132-10.851h-3.172l-2.216 11.279v-11.279h-3.25l-1.177 4.768-1.038-4.768h-3.551zM1.714 0.521h2.611l1.188 5.454 0.507 0.007 1.348-5.461h2.321v11.767h0.853l2.312-11.767h2.315l2.312 11.767h0.769v-11.767h2.841c1.067 0 1.647 0.278 1.998 0.741s0.487 1.171 0.496 2.063c0.005 0.507-0.040 1.025-0.201 1.465s-0.424 0.803-0.89 1.054l-0.489 0.263 0.515 0.207c0.543 0.219 0.801 0.534 0.946 0.874s0.166 0.713 0.166 1.015v2.055l0.001-0.017c-0.055 0.872 0.166 1.4 0.439 1.695s0.606 0.348 0.606 0.348l0.017 0.002h1.57l-1.609-11.767h1.788l0.7 7.925 0.517 0.011 1.038-7.936h1.696l-1.933 11.767h2.94v-11.767h4.403v1.651h-2.715v2.814h2.715v1.718h-2.715v2.814h2.715v2.769h1.533v-11.767h2.144v8.997h2.399v21.962h-16.875v-6.754l-0.498-0.106-2.71 6.090-2.71-6.090-0.498 0.106v6.754h-16.875v-30.959zM30.882 0.773v10.993h-1.807l1.807-10.993zM20.764 2.22c-0.113-0.020-0.233-0.021-0.36 0.003l-0.212 0.040v2.979l0.193 0.052c0.382 0.102 0.77-0.062 1.038-0.352s0.439-0.712 0.439-1.196c0-0.277-0.1-0.645-0.323-0.981-0.167-0.252-0.437-0.484-0.775-0.544zM13.753 2.445l-0.764 5.803h2.045l-0.764-5.803h-0.516zM20.713 2.737c0.161 0.033 0.281 0.147 0.393 0.315 0.155 0.235 0.236 0.575 0.236 0.694 0 0.36-0.131 0.659-0.301 0.843-0.107 0.115-0.218 0.167-0.328 0.191v-2.043zM14.011 4.473l0.429 3.255h-0.857l0.429-3.255zM3.801 5.134l-0.512 0.065v7.089h2.35l-1.838-7.154zM7.601 5.134l-1.838 7.154h2.351v-7.089l-0.512-0.065zM20.617 6.692c-0.061-0.002-0.123-0.001-0.187 0.005l-0.238 0.021v5.57h2.187v-0.521c-0.054 0-0.066-0.006-0.111-0.067s-0.095-0.181-0.129-0.336c-0.068-0.309-0.080-0.74-0.080-1.106v-2.061c0-0.322-0.131-0.669-0.373-0.961s-0.611-0.527-1.069-0.544zM20.713 7.243c0.234 0.041 0.43 0.153 0.572 0.324 0.166 0.201 0.254 0.463 0.254 0.63v2.061c0 0.375 0.006 0.828 0.093 1.218 0.022 0.101 0.050 0.198 0.087 0.29h-1.005v-4.523zM7.593 7.257v4.51h-1.159l1.159-4.51zM3.81 7.258l1.158 4.509h-1.158v-4.509zM12.825 9.494l-0.030 0.226-0.336 2.567h3.104l-0.366-2.794h-2.371zM13.282 10.014h1.458l0.23 1.752h-1.917l0.23-1.752z"></path>
<path fill="#f00" style="fill: var(--color2, #f00)" d="M1.454 0.26v31.479h17.395v-7.014l2.948 6.624 2.948-6.624v7.014h17.395v-22.482h-2.399v-8.997h-2.664v11.767h-1.012v-2.769h-2.715v-2.294h2.715v-2.238h-2.715v-2.294h2.715v-2.171h-4.924v11.767h-2.373l1.934-11.767h-2.231l-1.068 8.162-0.721-8.162h-2.324l1.609 11.767h-1.255c0 0-0.923-0.121-0.819-1.769v-2.055c0-0.625-0.074-1.646-1.275-2.13 1.048-0.565 1.239-1.702 1.227-2.751-0.020-1.831-0.526-3.062-2.755-3.062h-3.101v11.767h-0.294l-2.312-11.767h-2.743l-2.312 11.767h-0.379v-11.767h-2.785l-1.396 5.659-1.232-5.659zM21.602 3.746c0 0.844-0.603 1.443-1.149 1.297v-2.563c0.788-0.149 1.149 0.87 1.149 1.267zM14.011 2.479l0.726 5.508h-1.451zM3.549 5.198l1.754 6.829h-1.754zM7.854 5.198v6.829h-1.754zM20.607 6.952c0.753 0.028 1.191 0.756 1.191 1.246v2.061c0 0.741 0.037 1.769 0.581 1.769h-1.927v-5.071c0.053-0.005 0.105-0.006 0.155-0.004zM13.054 9.754h1.915l0.298 2.273h-2.51z"></path>
<path fill="#000" style="fill: var(--color1, #000)" d="M40.957 11.999c-0.26-0.001-0.536 0.054-0.815 0.176-0.943 0.413-2.273 1.346-3.363 2.503-0.156-0.726-0.408-1.272-0.758-1.634-0.428-0.443-1.006-0.591-1.575-0.471-1.025 0.217-1.714 0.556-3.271 1.908-0.872 0.758-1.651 1.823-2.315 2.948 0.091-0.906 0.18-1.754 0.331-3.264 0.054-0.538 0.049-0.927-0.019-1.227s-0.224-0.532-0.446-0.636c-0.222-0.104-0.454-0.083-0.674-0.039s-0.441 0.116-0.661 0.176c-0.353 0.096-0.76 0.287-1.101 0.58s-0.621 0.704-0.64 1.21c-0.001 0.033-0.014 0.063-0.018 0.094-0.067-0.126-0.143-0.245-0.241-0.344-0.398-0.404-0.983-0.441-1.661-0.375-0.624 0.061-1.047 0.297-1.322 0.616s-0.41 0.692-0.56 1.033c-0.18 0.388-0.487 1.065-0.838 1.723-0.174-0.829-0.261-1.751-0.382-2.36l-0.003-0.015-0.005-0.015c-0.061-0.184-0.12-0.445-0.36-0.64s-0.596-0.281-1.178-0.275c-0.69 0.007-1.133 0.543-1.386 1.016-0.24 0.45-0.334 0.865-0.344 0.908-0.006 0.014-0.477 1.286-0.865 2.612-0.21-0.402-0.445-0.752-0.753-0.996-0.46-0.364-1.037-0.543-1.753-0.607-0.772-0.069-1.611 0.226-2.386 0.697s-1.487 1.121-1.985 1.817c-0.986 1.378-1.186 3.35-1.475 4.441-1.076 0.642-2.274 0.929-3.344 0.949-0.225 0.004-0.387-0.064-0.524-0.185s-0.248-0.303-0.318-0.524c-0.14-0.441-0.104-1.023 0.092-1.426 0.212-0.436 0.676-1.102 1.166-1.694 0.399-0.483 0.798-0.876 1.098-1.12 0.122 0.241 0.262 0.512 0.52 0.724 0.179 0.147 0.429 0.242 0.709 0.216s0.58-0.156 0.932-0.403c0.754-0.53 0.875-1.41 0.762-2.221s-0.44-1.612-0.619-2.141c-0.104-0.307-0.261-0.546-0.47-0.703s-0.464-0.221-0.718-0.216c-0.508 0.011-1.039 0.262-1.586 0.596-1.057 0.645-2.497 1.495-4.309 4.028-0.86 1.202-1.721 3.121-1.488 4.926 0.23 1.779 1.224 2.662 1.95 3.25 0.806 0.653 1.974 0.791 3.071 0.706s2.127-0.391 2.726-0.754c0.526-0.319 0.845-0.431 1.080-0.696 0.117-0.133 0.189-0.307 0.214-0.497 0.004-0.028-0.004-0.072-0.002-0.102 0.384 0.323 0.723 0.589 1.107 0.74 0.526 0.208 1.136 0.235 2.158 0.154 1.082-0.085 2.012-0.617 2.693-1.253 0.612-0.57 1.018-1.207 1.168-1.764 0.105 0.030 0.357 0.107 0.727 0.162 0.166 0.024 0.413 0.142 0.719 0.045 0.153-0.048 0.297-0.164 0.399-0.328s0.175-0.374 0.234-0.659c0.161-0.783 0.53-2.13 0.878-3.115 0.004 0.248 0 0.522 0 1.121 0 0.278-0.039 0.653 0.182 0.977 0.11 0.162 0.298 0.288 0.529 0.333s0.502 0.026 0.845-0.056c0.573-0.138 0.965-0.487 1.273-1.063 0.295-0.485 0.527-0.985 0.767-1.47 0.009 0.45 0.030 0.894 0.027 1.193-0.003 0.256-0.041 0.512 0.037 0.779 0.039 0.134 0.12 0.272 0.248 0.369s0.289 0.149 0.478 0.172c0.367 0.043 0.818-0 1.215-0.166 0.199-0.083 0.385-0.198 0.529-0.364s0.239-0.388 0.238-0.635c-0-0.339 0.064-1.507 0.152-2.619 0.012-0.154 0.027-0.274 0.040-0.424 0.022 0.225 0.048 0.428 0.067 0.655 0.047 0.55 0.086 1.093 0.112 1.529s0.037 0.783 0.032 0.878c-0.012 0.263-0.056 0.766 0.108 1.186 0.082 0.21 0.251 0.424 0.513 0.483s0.546-0.028 0.877-0.233c0.285-0.177 0.445-0.253 0.595-0.342 0.312-0.184 0.472-0.492 0.535-0.821 0.051-0.268 0.032-0.549 0.021-0.813 0.19 0.21 0.419 0.424 0.69 0.624 0.56 0.412 1.282 0.752 2.082 0.756 0.991 0.004 2.325-0.259 3.171-0.841 0.381-0.262 0.761-0.516 1.070-0.805s0.556-0.626 0.605-1.042c0.058-0.493 0.036-0.85-0.070-1.125s-0.331-0.458-0.567-0.502c-0.472-0.088-0.892 0.196-1.166 0.433-0.479 0.412-0.822 0.737-1.708 0.885-0.366 0.061-0.578-0.087-0.698-0.386s-0.1-0.773 0.192-1.278c0.542-0.938 1.295-1.417 1.822-1.725 0.070 0.097 0.141 0.194 0.218 0.295 0.123 0.16 0.282 0.326 0.523 0.472 0.271 0.164 0.605 0.23 0.934 0.192 0.177-0.021 0.353-0.077 0.513-0.169 0.022 0.095 0.043 0.21 0.075 0.3 0.078 0.214 0.212 0.416 0.443 0.627 0.329 0.301 0.821 0.321 1.337 0.331s1.058-0.032 1.41-0.043c0.348-0.011 0.578 0.017 0.681 0.053 0.047 0.016 0.058 0.028 0.061 0.031 0.002 0.069-0.018 0.129-0.086 0.212-0.069 0.085-0.189 0.181-0.343 0.276-0.309 0.189-0.752 0.371-1.19 0.557-0.244 0.104-0.542 0.201-0.79 0.209-0.39 0.013-0.807 0.105-1.093 0.426s-0.386 0.824-0.258 1.522c0.089 0.488 0.215 0.833 0.409 1.080s0.47 0.371 0.74 0.386c0.541 0.030 1.077-0.244 1.682-0.409 0.673-0.183 1.782-0.657 2.731-1.378s1.757-1.719 1.642-2.928c-0.108-1.128-0.506-1.709-0.997-1.951s-1.004-0.152-1.254-0.155c-0.223-0.003-0.433-0.018-0.633-0.038-0.148-0.015-0.265-0.045-0.329-0.081s-0.086-0.057-0.104-0.148c-0.008-0.039-0-0.083 0.061-0.165s0.174-0.182 0.309-0.274c0.271-0.185 0.627-0.345 0.845-0.436 0.2-0.084 0.4-0.133 0.589-0.19s0.383-0.113 0.528-0.292c0.166-0.205 0.193-0.458 0.162-0.664s-0.111-0.382-0.18-0.514c-0.291-0.551-0.9-1.045-1.68-1.048zM40.955 12.519c0.557 0.003 1.012 0.373 1.222 0.771 0.054 0.103 0.109 0.235 0.126 0.348s0.005 0.188-0.052 0.259c-0.015 0.018-0.106 0.072-0.273 0.122s-0.395 0.105-0.641 0.208c-0.228 0.096-0.608 0.263-0.936 0.486-0.164 0.112-0.317 0.237-0.433 0.392s-0.198 0.362-0.155 0.579c0.045 0.223 0.19 0.404 0.359 0.499s0.352 0.127 0.532 0.145c0.212 0.022 0.438 0.037 0.679 0.041 0.342 0.005 0.723-0.050 1.031 0.102s0.61 0.502 0.709 1.533c0.091 0.95-0.56 1.796-1.438 2.464s-1.962 1.13-2.552 1.29c-0.657 0.179-1.204 0.409-1.517 0.391-0.156-0.009-0.249-0.046-0.36-0.187s-0.225-0.41-0.306-0.852c-0.112-0.611-0.014-0.916 0.134-1.082s0.403-0.241 0.722-0.252c0.361-0.012 0.704-0.135 0.976-0.25 0.433-0.184 0.89-0.367 1.258-0.592 0.184-0.113 0.348-0.236 0.474-0.39s0.213-0.351 0.206-0.565c-0.004-0.109-0.047-0.229-0.124-0.317s-0.178-0.144-0.287-0.183c-0.219-0.076-0.491-0.095-0.869-0.082-0.374 0.012-0.903 0.053-1.382 0.043s-0.905-0.112-0.995-0.195c-0.189-0.173-0.253-0.276-0.305-0.42s-0.085-0.348-0.163-0.658l-0.1-0.403 0.322-0.378c1.077-1.264 2.598-2.326 3.536-2.737 0.217-0.095 0.418-0.133 0.604-0.132zM28.506 12.772c0.058 0.027 0.113 0.074 0.159 0.28s0.060 0.553 0.009 1.061c-0.209 2.091-0.378 3.541-0.461 4.537l0.491 0.141c0.762-1.479 1.743-2.986 2.813-3.916 1.534-1.333 2.067-1.587 3.037-1.792 0.428-0.091 0.778-0.002 1.093 0.323s0.585 0.923 0.712 1.85l0.057 0.419-0.288 0.408c-0.112 0.159-0.296 0.25-0.511 0.275s-0.449-0.026-0.604-0.119c-0.184-0.112-0.28-0.213-0.379-0.343s-0.2-0.296-0.362-0.49l-0.141-0.168-0.19 0.11c-0.501 0.291-1.525 0.845-2.211 2.033-0.356 0.617-0.419 1.247-0.224 1.733s0.694 0.802 1.267 0.706c0.994-0.167 1.488-0.597 1.961-1.004 0.201-0.173 0.58-0.344 0.732-0.316 0.076 0.014 0.12 0.031 0.176 0.178s0.092 0.431 0.039 0.876c-0.029 0.246-0.181 0.478-0.444 0.723s-0.626 0.492-1.009 0.756c-0.684 0.471-1.984 0.753-2.873 0.749-0.653-0.003-1.278-0.288-1.776-0.654s-0.865-0.825-0.983-1.070l-0.292-0.605-0.192 0.644c-0.080 0.269-0.064 0.553-0.052 0.828s0.022 0.54-0.011 0.714c-0.048 0.249-0.109 0.365-0.288 0.47-0.122 0.072-0.303 0.161-0.605 0.348-0.27 0.167-0.427 0.182-0.488 0.168s-0.097-0.047-0.143-0.165c-0.092-0.235-0.086-0.705-0.073-0.971 0.008-0.169-0.006-0.491-0.032-0.933s-0.065-0.988-0.113-1.543c-0.095-1.11-0.207-2.215-0.344-2.691l-0.205-0.709-0.285 0.681c-0.045 0.108-0.062 0.214-0.088 0.37s-0.052 0.349-0.077 0.57c-0.051 0.441-0.101 0.992-0.145 1.552-0.089 1.12-0.154 2.26-0.154 2.661 0 0.123-0.037 0.208-0.111 0.293s-0.192 0.165-0.337 0.225c-0.29 0.121-0.685 0.161-0.953 0.13-0.128-0.015-0.193-0.046-0.226-0.070s-0.046-0.044-0.062-0.099c-0.032-0.108-0.019-0.343-0.016-0.628 0.006-0.545 0.007-1.639-0.051-2.199l-0.073-0.701-0.4 0.58c-0.532 0.77-0.81 1.627-1.238 2.329l-0.004 0.006-0.004 0.007c-0.271 0.509-0.485 0.697-0.938 0.806-0.298 0.072-0.501 0.075-0.622 0.051s-0.162-0.060-0.2-0.116c-0.076-0.112-0.091-0.391-0.091-0.683-0-0.716 0.014-1.091-0.001-1.38s-0.069-0.496-0.183-0.777l-0.221-0.546-0.255 0.531c-0.465 0.969-1.025 2.971-1.249 4.061-0.051 0.248-0.113 0.404-0.165 0.488s-0.081 0.097-0.114 0.107c-0.065 0.020-0.237-0.027-0.486-0.064-0.39-0.058-0.792-0.176-0.792-0.176l-0.001-0-0.001-0c0 0-0.060-0.021-0.146-0.018-0.043 0.002-0.102 0.007-0.171 0.049s-0.136 0.136-0.15 0.223c-0.064 0.394-0.451 1.086-1.066 1.659s-1.444 1.041-2.379 1.115c-0.995 0.078-1.513 0.043-1.926-0.12s-0.767-0.479-1.398-1.018l-0.486-0.416 0.058 0.637c0.025 0.271 0.029 0.458 0.014 0.576s-0.037 0.162-0.087 0.218c-0.1 0.113-0.41 0.263-0.96 0.596-0.477 0.289-1.475 0.601-2.497 0.68s-2.066-0.075-2.703-0.591c-0.713-0.577-1.553-1.296-1.762-2.913-0.205-1.59 0.595-3.437 1.395-4.556 1.77-2.473 3.092-3.237 4.157-3.886 0.513-0.313 0.995-0.513 1.326-0.52 0.165-0.003 0.288 0.032 0.395 0.112s0.209 0.217 0.289 0.453c0.189 0.557 0.496 1.327 0.596 2.046s0.014 1.33-0.546 1.723c-0.306 0.215-0.531 0.297-0.681 0.311s-0.235-0.022-0.33-0.1c-0.191-0.157-0.35-0.537-0.549-0.863l-0.136-0.223-0.223 0.138c-0.414 0.256-0.933 0.8-1.441 1.415s-0.983 1.286-1.233 1.799c-0.266 0.546-0.305 1.229-0.12 1.811 0.092 0.291 0.244 0.559 0.471 0.758s0.532 0.32 0.878 0.313c1.184-0.023 2.509-0.338 3.698-1.074l0.086-0.053 0.027-0.097c0.33-1.173 0.536-3.146 1.42-4.383 0.45-0.629 1.119-1.243 1.832-1.675s1.468-0.677 2.069-0.623c0.657 0.059 1.116 0.212 1.477 0.497s0.639 0.719 0.885 1.388l0.29 0.788 0.207-0.814c0.383-1.506 1.047-3.207 1.047-3.207l0.008-0.019 0.004-0.020c0 0 0.090-0.405 0.303-0.803s0.513-0.737 0.932-0.741c0.526-0.005 0.749 0.081 0.844 0.158 0.091 0.074 0.124 0.186 0.188 0.382 0.137 0.7 0.23 2.006 0.552 3.042l0.168 0.54 0.301-0.479c0.538-0.856 0.962-1.894 1.182-2.368l0.001-0.002 0.001-0.003c0.158-0.359 0.283-0.677 0.478-0.903s0.452-0.387 0.978-0.438c0.629-0.061 1.014-0.007 1.24 0.222 0.16 0.163 0.313 0.576 0.439 1.053l0.511-0.047c0.034-0.441 0.183-0.652 0.2-1.102 0.012-0.327 0.191-0.605 0.459-0.835s0.619-0.396 0.898-0.472c0.235-0.064 0.452-0.134 0.626-0.168s0.293-0.028 0.351-0zM13.511 19.357c-0.421 0.020-0.844 0.283-1.247 0.619s-0.764 0.749-0.942 1.171l-0.003 0.008-0.003 0.008c-0.186 0.538-0.358 1.12-0.353 1.642 0.003 0.261 0.051 0.515 0.192 0.73s0.377 0.372 0.671 0.433c0.591 0.122 1.161-0.152 1.601-0.553s0.77-0.937 0.896-1.463l0.001-0.004c0.095-0.425 0.144-0.933 0.1-1.394s-0.164-0.913-0.552-1.123c-0.115-0.062-0.241-0.081-0.361-0.075zM13.536 19.876c0.051-0.002 0.077 0.007 0.088 0.013 0.116 0.063 0.246 0.328 0.282 0.715s-0.006 0.856-0.090 1.229c-0.095 0.396-0.38 0.869-0.74 1.198s-0.776 0.504-1.144 0.428c-0.186-0.038-0.275-0.107-0.34-0.208s-0.105-0.253-0.107-0.451c-0.004-0.393 0.143-0.94 0.32-1.454 0.124-0.291 0.441-0.676 0.794-0.97 0.354-0.295 0.76-0.49 0.938-0.499z"></path>
<path fill="#ff0" style="fill: var(--color3, #ff0)" d="M40.956 12.259c-0.223-0.001-0.461 0.046-0.709 0.154-0.992 0.434-2.521 1.507-3.63 2.807-0.262-1.921-1.119-2.604-2.117-2.393s-1.609 0.507-3.154 1.85c-1.115 0.969-2.103 2.498-2.874 3.994 0.082-0.987 0.251-2.44 0.46-4.532s-0.563-1.697-1.473-1.449c-0.632 0.172-1.517 0.715-1.549 1.549-0.015 0.388-0.162 0.605-0.2 1.092-0.128-0.485-0.269-0.929-0.505-1.169-0.312-0.317-0.797-0.362-1.45-0.298-1.15 0.112-1.36 0.796-1.669 1.495-0.227 0.488-0.646 1.511-1.166 2.339-0.309-0.994-0.401-2.294-0.547-3.029-0.13-0.393-0.18-0.747-1.288-0.736s-1.486 1.749-1.486 1.749c0 0-0.668 1.707-1.057 3.238-0.511-1.39-1.21-1.931-2.583-2.055s-3.188 1.081-4.136 2.406c-0.947 1.325-1.144 3.341-1.459 4.463-1.144 0.708-2.425 1.013-3.566 1.035s-1.451-1.559-0.989-2.508c0.462-0.949 1.878-2.673 2.577-3.106 0.354 0.58 0.619 1.653 1.932 0.73s0.414-2.98 0.046-4.066c-0.368-1.086-1.332-0.831-2.393-0.184s-2.442 1.454-4.233 3.957c-0.831 1.161-1.661 3.043-1.442 4.741s1.137 2.499 1.856 3.081c1.443 1.169 4.423 0.582 5.499-0.069s1.258-0.526 1.157-1.636c1.257 1.075 1.497 1.358 3.513 1.199s3.519-2.001 3.681-2.991c0.013-0.082 0.138-0.046 0.138-0.046s0.414 0.123 0.828 0.184c0.415 0.061 0.839 0.33 1.058-0.736s0.791-3.088 1.229-4.001c0.219 0.541 0.164 0.621 0.165 2.059 0 0.571-0.047 1.309 1.234 1.001 0.514-0.123 0.817-0.393 1.107-0.937 0.45-0.738 0.727-1.587 1.231-2.317 0.054 0.523 0.056 1.629 0.050 2.169s-0.102 0.983 0.533 1.058c0.635 0.075 1.692-0.167 1.692-0.907s0.261-4.616 0.444-5.052c0.229 0.794 0.504 4.554 0.479 5.082s-0.101 1.946 1.101 1.202c0.294-0.182 0.464-0.265 0.6-0.345 0.246-0.145 0.357-0.357 0.412-0.646 0.086-0.449-0.064-1.109 0.057-1.516 0.299 0.621 1.539 1.865 2.993 1.871 0.94 0.004 2.257-0.268 3.022-0.795s1.486-1 1.564-1.663c0.222-1.877-0.9-1.375-1.375-0.966s-0.895 0.787-1.834 0.944c-0.94 0.157-1.423-0.929-0.775-2.051s1.608-1.643 2.117-1.938c0.298 0.355 0.381 0.63 0.806 0.888s1.137 0.233 1.462-0.227c0.149 0.599 0.124 0.823 0.544 1.207s1.836 0.244 2.562 0.22c0.726-0.024 1.003 0.094 1.012 0.331 0.021 0.568-0.909 0.928-1.78 1.297-0.258 0.11-0.578 0.219-0.883 0.23-0.709 0.025-1.343 0.332-1.104 1.641 0.34 1.859 1.245 1.196 2.507 0.853s4.387-1.871 4.181-4.030c-0.206-2.16-1.403-1.862-1.995-1.87-0.232-0.003-0.45-0.018-0.656-0.039-0.328-0.033-0.599-0.122-0.662-0.437-0.103-0.513 0.924-0.98 1.37-1.167s0.855-0.209 1.016-0.406c0.223-0.275 0.078-0.658-0.046-0.892-0.251-0.475-0.782-0.906-1.451-0.909zM13.524 19.617c0.085-0.004 0.162 0.010 0.225 0.044 0.504 0.274 0.501 1.433 0.322 2.232-0.221 0.923-1.232 2.020-2.191 1.822s-0.682-1.409-0.317-2.466c0.301-0.713 1.363-1.603 1.961-1.631z"></path>
</symbol>
</defs>
</svg>
